<?xml version="1.0" encoding="UTF-8"?>
<!--Generator: Apple Native CoreSVG 149-->
<!DOCTYPE svg
PUBLIC "-//W3C//DTD SVG 1.1//EN"
       "http://www.w3.org/Graphics/SVG/1.1/DTD/svg11.dtd">
<svg version="1.1" xmlns="http://www.w3.org/2000/svg" xmlns:xlink="http://www.w3.org/1999/xlink" width="3300" height="2200">
 <!--glyph: "uni10005C.medium", point size: 100.000000, font version: "Version 16.0d18e1", template writer version: "8"-->
 <g id="Notes">
  <rect height="2200" id="artboard" style="fill:white;opacity:1" width="3300" x="0" y="0"/>
  <line id="" style="fill:none;stroke:black;opacity:1;stroke-width:0.5;" x1="263" x2="3036" y1="292" y2="292"/>
  <text style="stroke:none;fill:black;font-family:-apple-system,&quot;SF Pro Display&quot;,&quot;SF Pro Text&quot;,Helvetica,sans-serif;font-weight:bold;" transform="matrix(1 0 0 1 263 322)">Weight/Scale Variations</text>
  <text style="stroke:none;fill:black;font-family:-apple-system,&quot;SF Pro Display&quot;,&quot;SF Pro Text&quot;,Helvetica,sans-serif;text-anchor:middle;" transform="matrix(1 0 0 1 559.711 322)">Ultralight</text>
  <text style="stroke:none;fill:black;font-family:-apple-system,&quot;SF Pro Display&quot;,&quot;SF Pro Text&quot;,Helvetica,sans-serif;text-anchor:middle;" transform="matrix(1 0 0 1 856.422 322)">Thin</text>
  <text style="stroke:none;fill:black;font-family:-apple-system,&quot;SF Pro Display&quot;,&quot;SF Pro Text&quot;,Helvetica,sans-serif;text-anchor:middle;" transform="matrix(1 0 0 1 1153.13 322)">Light</text>
  <text style="stroke:none;fill:black;font-family:-apple-system,&quot;SF Pro Display&quot;,&quot;SF Pro Text&quot;,Helvetica,sans-serif;text-anchor:middle;" transform="matrix(1 0 0 1 1449.84 322)">Regular</text>
  <text style="stroke:none;fill:black;font-family:-apple-system,&quot;SF Pro Display&quot;,&quot;SF Pro Text&quot;,Helvetica,sans-serif;text-anchor:middle;" transform="matrix(1 0 0 1 1746.56 322)">Medium</text>
  <text style="stroke:none;fill:black;font-family:-apple-system,&quot;SF Pro Display&quot;,&quot;SF Pro Text&quot;,Helvetica,sans-serif;text-anchor:middle;" transform="matrix(1 0 0 1 2043.27 322)">Semibold</text>
  <text style="stroke:none;fill:black;font-family:-apple-system,&quot;SF Pro Display&quot;,&quot;SF Pro Text&quot;,Helvetica,sans-serif;text-anchor:middle;" transform="matrix(1 0 0 1 2339.98 322)">Bold</text>
  <text style="stroke:none;fill:black;font-family:-apple-system,&quot;SF Pro Display&quot;,&quot;SF Pro Text&quot;,Helvetica,sans-serif;text-anchor:middle;" transform="matrix(1 0 0 1 2636.69 322)">Heavy</text>
  <text style="stroke:none;fill:black;font-family:-apple-system,&quot;SF Pro Display&quot;,&quot;SF Pro Text&quot;,Helvetica,sans-serif;text-anchor:middle;" transform="matrix(1 0 0 1 2933.4 322)">Black</text>
  <line id="" style="fill:none;stroke:black;opacity:1;stroke-width:0.5;" x1="263" x2="3036" y1="1903" y2="1903"/>
  <g id="" transform="matrix(1 0 0 1 263 1933)">
   <path d="M9.24805 0.830078C13.5547 0.830078 17.1387-2.74414 17.1387-7.05078C17.1387-11.3574 13.5449-14.9316 9.23828-14.9316C4.94141-14.9316 1.36719-11.3574 1.36719-7.05078C1.36719-2.74414 4.95117 0.830078 9.24805 0.830078ZM9.24805-0.654297C5.70312-0.654297 2.87109-3.49609 2.87109-7.05078C2.87109-10.6055 5.69336-13.4473 9.23828-13.4473C12.793-13.4473 15.6348-10.6055 15.6445-7.05078C15.6543-3.49609 12.8027-0.654297 9.24805-0.654297ZM6.39648-6.31836L8.50586-6.31836L8.50586-4.19922C8.50586-3.75977 8.79883-3.45703 9.22852-3.45703C9.67773-3.45703 9.9707-3.75977 9.9707-4.19922L9.9707-6.31836L12.0996-6.31836C12.5391-6.31836 12.8418-6.61133 12.8418-7.04102C12.8418-7.48047 12.5391-7.7832 12.0996-7.7832L9.9707-7.7832L9.9707-9.89258C9.9707-10.3418 9.67773-10.6445 9.22852-10.6445C8.79883-10.6445 8.50586-10.3418 8.50586-9.89258L8.50586-7.7832L6.39648-7.7832C5.94727-7.7832 5.64453-7.48047 5.64453-7.04102C5.64453-6.61133 5.94727-6.31836 6.39648-6.31836Z"/>
  </g>
  <g id="" transform="matrix(1 0 0 1 281.506 1933)">
   <path d="M11.709 2.91016C17.1582 2.91016 21.6699-1.61133 21.6699-7.05078C21.6699-12.5 17.1484-17.0117 11.6992-17.0117C6.25977-17.0117 1.74805-12.5 1.74805-7.05078C1.74805-1.61133 6.26953 2.91016 11.709 2.91016ZM11.709 1.25C7.09961 1.25 3.41797-2.44141 3.41797-7.05078C3.41797-11.6602 7.08984-15.3516 11.6992-15.3516C16.3086-15.3516 20-11.6602 20.0098-7.05078C20.0195-2.44141 16.3184 1.25 11.709 1.25ZM7.98828-6.23047L10.8789-6.23047L10.8789-3.32031C10.8789-2.83203 11.2109-2.5 11.6895-2.5C12.1777-2.5 12.5195-2.83203 12.5195-3.32031L12.5195-6.23047L15.4297-6.23047C15.918-6.23047 16.25-6.5625 16.25-7.04102C16.25-7.5293 15.918-7.87109 15.4297-7.87109L12.5195-7.87109L12.5195-10.7617C12.5195-11.2695 12.1777-11.6016 11.6895-11.6016C11.2109-11.6016 10.8789-11.2598 10.8789-10.7617L10.8789-7.87109L7.98828-7.87109C7.48047-7.87109 7.14844-7.5293 7.14844-7.04102C7.14844-6.5625 7.49023-6.23047 7.98828-6.23047Z"/>
  </g>
  <g id="" transform="matrix(1 0 0 1 304.924 1933)">
   <path d="M14.9707 5.66406C21.9336 5.66406 27.6953-0.0976562 27.6953-7.05078C27.6953-14.0137 21.9238-19.7754 14.9609-19.7754C8.00781-19.7754 2.25586-14.0137 2.25586-7.05078C2.25586-0.0976562 8.01758 5.66406 14.9707 5.66406ZM14.9707 3.84766C8.93555 3.84766 4.08203-1.01562 4.08203-7.05078C4.08203-13.0957 8.92578-17.9492 14.9609-17.9492C21.0059-17.9492 25.8594-13.0957 25.8691-7.05078C25.8789-1.01562 21.0156 3.84766 14.9707 3.84766ZM10.0586-6.14258L14.0625-6.14258L14.0625-2.12891C14.0625-1.5918 14.4336-1.2207 14.9512-1.2207C15.4883-1.2207 15.8594-1.5918 15.8594-2.12891L15.8594-6.14258L19.8828-6.14258C20.4102-6.14258 20.791-6.51367 20.791-7.03125C20.791-7.56836 20.4199-7.94922 19.8828-7.94922L15.8594-7.94922L15.8594-11.9531C15.8594-12.5098 15.4883-12.8809 14.9512-12.8809C14.4336-12.8809 14.0625-12.5 14.0625-11.9531L14.0625-7.94922L10.0586-7.94922C9.50195-7.94922 9.13086-7.56836 9.13086-7.03125C9.13086-6.51367 9.51172-6.14258 10.0586-6.14258Z"/>
  </g>
  <text style="stroke:none;fill:black;font-family:-apple-system,&quot;SF Pro Display&quot;,&quot;SF Pro Text&quot;,Helvetica,sans-serif;font-weight:bold;" transform="matrix(1 0 0 1 263 1953)">Design Variations</text>
  <text style="stroke:none;fill:black;font-family:-apple-system,&quot;SF Pro Display&quot;,&quot;SF Pro Text&quot;,Helvetica,sans-serif;" transform="matrix(1 0 0 1 263 1971)">Symbols are supported in up to nine weights and three scales.</text>
  <text style="stroke:none;fill:black;font-family:-apple-system,&quot;SF Pro Display&quot;,&quot;SF Pro Text&quot;,Helvetica,sans-serif;" transform="matrix(1 0 0 1 263 1989)">For optimal layout with text and other symbols, vertically align</text>
  <text style="stroke:none;fill:black;font-family:-apple-system,&quot;SF Pro Display&quot;,&quot;SF Pro Text&quot;,Helvetica,sans-serif;" transform="matrix(1 0 0 1 263 2007)">symbols with the adjacent text.</text>
  <line id="" style="fill:none;stroke:#00AEEF;stroke-width:0.5;opacity:1.0;" x1="776" x2="776" y1="1919" y2="1933"/>
  <g id="" transform="matrix(1 0 0 1 776 1933)">
   <path d="M3.31055 0.126953C3.82812 0.126953 4.08203-0.0683594 4.26758-0.605469L5.52734-4.0625L11.2891-4.0625L12.5488-0.605469C12.7344-0.0683594 12.9883 0.126953 13.4961 0.126953C14.0137 0.126953 14.3457-0.185547 14.3457-0.673828C14.3457-0.839844 14.3164-0.986328 14.2383-1.20117L9.6582-13.3887C9.43359-13.9941 9.0332-14.2871 8.4082-14.2871C7.80273-14.2871 7.39258-13.9941 7.17773-13.3984L2.59766-1.19141C2.51953-0.976562 2.49023-0.830078 2.49023-0.664062C2.49023-0.175781 2.80273 0.126953 3.31055 0.126953ZM6.00586-5.53711L8.37891-12.1094L8.42773-12.1094L10.8008-5.53711Z"/>
  </g>
  <line id="" style="fill:none;stroke:#00AEEF;stroke-width:0.5;opacity:1.0;" x1="792.836" x2="792.836" y1="1919" y2="1933"/>
  <text style="stroke:none;fill:black;font-family:-apple-system,&quot;SF Pro Display&quot;,&quot;SF Pro Text&quot;,Helvetica,sans-serif;font-weight:bold;" transform="matrix(1 0 0 1 776 1953)">Margins</text>
  <text style="stroke:none;fill:black;font-family:-apple-system,&quot;SF Pro Display&quot;,&quot;SF Pro Text&quot;,Helvetica,sans-serif;" transform="matrix(1 0 0 1 776 1971)">Leading and trailing margins on the left and right side of each symbol</text>
  <text style="stroke:none;fill:black;font-family:-apple-system,&quot;SF Pro Display&quot;,&quot;SF Pro Text&quot;,Helvetica,sans-serif;" transform="matrix(1 0 0 1 776 1989)">can be adjusted by modifying the x-location of the margin guidelines.</text>
  <text style="stroke:none;fill:black;font-family:-apple-system,&quot;SF Pro Display&quot;,&quot;SF Pro Text&quot;,Helvetica,sans-serif;" transform="matrix(1 0 0 1 776 2007)">Modifications are automatically applied proportionally to all</text>
  <text style="stroke:none;fill:black;font-family:-apple-system,&quot;SF Pro Display&quot;,&quot;SF Pro Text&quot;,Helvetica,sans-serif;" transform="matrix(1 0 0 1 776 2025)">scales and weights.</text>
  <g id="" transform="matrix(1 0 0 1 1289 1933)">
   <path d="M2.8418 1.86523L4.54102 3.57422C5.40039 4.44336 6.38672 4.38477 7.31445 3.35938L17.4902-7.85156C17.7539-7.76367 18.0273-7.7832 18.3398-7.8418L19.4043-8.03711L20.0684-7.36328L20.0293-6.80664C19.9902-6.30859 20.1172-5.92773 20.6055-5.44922L21.3672-4.70703C21.8457-4.22852 22.4609-4.19922 22.9297-4.66797L25.8398-7.58789C26.3086-8.05664 26.2891-8.65234 25.8105-9.13086L25.0391-9.89258C24.5605-10.3711 24.1895-10.5273 23.7109-10.4883L23.1348-10.4395L22.4902-11.0742L22.7344-12.1973C22.8613-12.7637 22.7051-13.2031 22.1191-13.7891L19.9219-15.9766C16.582-19.2969 12.1484-19.2188 9.25781-16.3281C8.83789-15.918 8.80859-15.3418 9.04297-14.9512C9.27734-14.5898 9.73633-14.3555 10.3809-14.5215C11.8457-14.8633 13.3691-14.9219 14.7949-13.9844L14.209-12.5293C14.0137-12.0508 13.9844-11.6504 14.1113-11.2891L3.04688-0.898438C2.06055 0.0195312 1.98242 0.996094 2.8418 1.86523ZM10.752-15.957C13.1836-17.7344 16.4746-17.4316 18.7012-15.2051L21.1328-12.793C21.3672-12.5586 21.4062-12.373 21.3379-12.0312L21.0156-10.5469L22.5195-9.0625L23.5059-9.12109C23.7598-9.13086 23.8379-9.11133 24.0332-8.91602L24.6094-8.33984L22.168-5.89844L21.5918-6.47461C21.3965-6.66992 21.3672-6.74805 21.377-7.01172L21.4453-7.98828L19.9512-9.47266L18.4277-9.21875C18.1055-9.15039 17.959-9.17969 17.7148-9.41406L15.7129-11.416C15.459-11.6504 15.4297-11.8164 15.5859-12.1875L16.4648-14.2773C14.9023-15.7324 12.8711-16.3574 10.8398-15.7617C10.6836-15.7227 10.625-15.8496 10.752-15.957ZM5.27344 2.30469L4.10156 1.14258C3.63281 0.683594 3.74023 0.341797 4.14062-0.0195312L14.9512-10.1953L16.416-8.71094L6.42578 2.27539C6.07422 2.67578 5.74219 2.77344 5.27344 2.30469Z"/>
  </g>
  <text style="stroke:none;fill:black;font-family:-apple-system,&quot;SF Pro Display&quot;,&quot;SF Pro Text&quot;,Helvetica,sans-serif;font-weight:bold;" transform="matrix(1 0 0 1 1289 1953)">Exporting</text>
  <text style="stroke:none;fill:black;font-family:-apple-system,&quot;SF Pro Display&quot;,&quot;SF Pro Text&quot;,Helvetica,sans-serif;" transform="matrix(1 0 0 1 1289 1971)">Symbols should be outlined when exporting to ensure the</text>
  <text style="stroke:none;fill:black;font-family:-apple-system,&quot;SF Pro Display&quot;,&quot;SF Pro Text&quot;,Helvetica,sans-serif;" transform="matrix(1 0 0 1 1289 1989)">design is preserved when submitting to Xcode.</text>
  <text id="template-version" style="stroke:none;fill:black;font-family:-apple-system,&quot;SF Pro Display&quot;,&quot;SF Pro Text&quot;,Helvetica,sans-serif;text-anchor:end;" transform="matrix(1 0 0 1 3036 1933)">Template v.2.0</text>
  <text style="stroke:none;fill:black;font-family:-apple-system,&quot;SF Pro Display&quot;,&quot;SF Pro Text&quot;,Helvetica,sans-serif;text-anchor:end;" transform="matrix(1 0 0 1 3036 1951)">Requires Xcode 12 or greater</text>
  <text style="stroke:none;fill:black;font-family:-apple-system,&quot;SF Pro Display&quot;,&quot;SF Pro Text&quot;,Helvetica,sans-serif;text-anchor:end;" transform="matrix(1 0 0 1 3036 1969)">Generated from questionmark.circle</text>
  <text style="stroke:none;fill:black;font-family:-apple-system,&quot;SF Pro Display&quot;,&quot;SF Pro Text&quot;,Helvetica,sans-serif;text-anchor:end;" transform="matrix(1 0 0 1 3036 1987)">Typeset at 100 points</text>
  <text style="stroke:none;fill:black;font-family:-apple-system,&quot;SF Pro Display&quot;,&quot;SF Pro Text&quot;,Helvetica,sans-serif;" transform="matrix(1 0 0 1 263 726)">Small</text>
  <text style="stroke:none;fill:black;font-family:-apple-system,&quot;SF Pro Display&quot;,&quot;SF Pro Text&quot;,Helvetica,sans-serif;" transform="matrix(1 0 0 1 263 1156)">Medium</text>
  <text style="stroke:none;fill:black;font-family:-apple-system,&quot;SF Pro Display&quot;,&quot;SF Pro Text&quot;,Helvetica,sans-serif;" transform="matrix(1 0 0 1 263 1586)">Large</text>
 </g>
 <g id="Guides">
  <g id="H-reference" style="fill:#27AAE1;stroke:none;" transform="matrix(1 0 0 1 339 696)">
   <path d="M0.976562 0L3.66211 0L12.9883-24.4629L45.752-24.4629L55.127 0L57.7637 0L30.6152-70.459L28.125-70.459ZM29.3457-67.1387L29.4434-67.1387L44.873-26.709L13.8672-26.709Z"/>
  </g>
  <line id="Baseline-S" style="fill:none;stroke:#27AAE1;opacity:1;stroke-width:0.5;" x1="263" x2="3036" y1="696" y2="696"/>
  <line id="Capline-S" style="fill:none;stroke:#27AAE1;opacity:1;stroke-width:0.5;" x1="263" x2="3036" y1="625.541" y2="625.541"/>
  <g id="H-reference" style="fill:#27AAE1;stroke:none;" transform="matrix(1 0 0 1 339 1126)">
   <path d="M0.976562 0L3.66211 0L12.9883-24.4629L45.752-24.4629L55.127 0L57.7637 0L30.6152-70.459L28.125-70.459ZM29.3457-67.1387L29.4434-67.1387L44.873-26.709L13.8672-26.709Z"/>
  </g>
  <line id="Baseline-M" style="fill:none;stroke:#27AAE1;opacity:1;stroke-width:0.5;" x1="263" x2="3036" y1="1126" y2="1126"/>
  <line id="Capline-M" style="fill:none;stroke:#27AAE1;opacity:1;stroke-width:0.5;" x1="263" x2="3036" y1="1055.54" y2="1055.54"/>
  <g id="H-reference" style="fill:#27AAE1;stroke:none;" transform="matrix(1 0 0 1 339 1556)">
   <path d="M0.976562 0L3.66211 0L12.9883-24.4629L45.752-24.4629L55.127 0L57.7637 0L30.6152-70.459L28.125-70.459ZM29.3457-67.1387L29.4434-67.1387L44.873-26.709L13.8672-26.709Z"/>
  </g>
  <line id="Baseline-L" style="fill:none;stroke:#27AAE1;opacity:1;stroke-width:0.5;" x1="263" x2="3036" y1="1556" y2="1556"/>
  <line id="Capline-L" style="fill:none;stroke:#27AAE1;opacity:1;stroke-width:0.5;" x1="263" x2="3036" y1="1485.54" y2="1485.54"/>
  <line id="left-margin" style="fill:none;stroke:#00AEEF;stroke-width:0.5;opacity:1.0;" x1="1391.3" x2="1391.3" y1="1030.79" y2="1150.12"/>
  <line id="right-margin" style="fill:none;stroke:#00AEEF;stroke-width:0.5;opacity:1.0;" x1="1508.39" x2="1508.39" y1="1030.79" y2="1150.12"/>
 </g>
 <g id="Symbols">
  <g id="Black-L" transform="matrix(1 0 0 1 2854.05 1556)">
   <path d="M79.3457 32.8613C116.748 32.8613 147.412 2.19727 147.412-35.2051C147.412-72.6074 116.748-103.271 79.2969-103.271C41.8945-103.271 11.2793-72.6074 11.2793-35.2051C11.2793 2.19727 41.9434 32.8613 79.3457 32.8613ZM79.3457 12.4023C52.9785 12.4023 31.7383-8.83789 31.7383-35.2051C31.7383-61.5723 52.9297-82.8125 79.2969-82.8125C105.664-82.8125 126.953-61.5723 126.953-35.2051C127.002-8.83789 105.713 12.4023 79.3457 12.4023ZM77.5391-24.1699C82.0801-24.1699 85.4004-26.3184 86.084-29.2969C86.1328-29.4922 86.1816-29.7852 86.2793-29.9316C87.0117-32.2754 89.8438-34.2285 92.9199-36.1328C99.5117-40.2344 102.49-43.7012 102.49-50.3906C102.49-61.084 92.4805-68.2617 79.6387-68.2617C68.8965-68.2617 60.8398-64.0625 58.0566-57.8613C57.5195-56.543 57.1777-55.3223 57.1777-53.9062C57.1777-50.0488 60.1562-46.875 65.5273-46.875C69.7266-46.875 71.4355-48.877 73.0957-50.4883C75.1953-52.4414 76.6602-53.2227 78.6133-53.2227C81.1523-53.2227 82.8613-51.709 82.8613-49.3164C82.8613-46.6797 80.2246-44.7754 75.4883-41.5527C71.1426-38.5742 68.2129-35.6445 68.2129-31.4453L68.2129-31.2012C68.2129-26.5625 71.5332-24.1699 77.5391-24.1699ZM77.5391-3.02734C82.959-3.02734 86.9629-6.15234 86.9629-11.3281C86.9629-16.4062 83.0078-19.6289 77.5391-19.6289C72.1191-19.6289 68.0176-16.4551 68.0176-11.3281C68.0176-6.20117 72.1191-3.02734 77.5391-3.02734Z"/>
  </g>
  <g id="Heavy-L" transform="matrix(1 0 0 1 2558.39 1556)">
   <path d="M78.2715 31.7871C115.088 31.7871 145.312 1.5625 145.312-35.2051C145.312-72.0215 115.039-102.246 78.2715-102.246C41.4551-102.246 11.2793-72.0215 11.2793-35.2051C11.2793 1.5625 41.5039 31.7871 78.2715 31.7871ZM78.2715 14.0137C51.0254 14.0137 29.0527-7.95898 29.0527-35.2051C29.0527-62.5 50.9766-84.4727 78.2715-84.4727C105.518-84.4727 127.49-62.5 127.539-35.2051C127.539-7.95898 105.566 14.0137 78.2715 14.0137ZM76.6113-23.7305C80.7129-23.7305 83.6426-25.7812 84.1797-28.5645C84.2285-28.8086 84.2285-29.1016 84.2773-29.2969C84.8633-31.9824 87.5-33.9844 90.918-36.1816C97.4121-40.2832 100.635-43.7988 100.635-50.5859C100.635-61.084 90.918-67.8711 78.6621-67.8711C67.9199-67.8711 60.1562-63.4277 57.666-57.2754C57.1777-56.0547 56.9336-54.8828 56.9336-53.5645C56.9336-50.0488 59.6191-47.3145 64.1602-47.3145C68.1152-47.3145 69.5312-49.2188 71.1914-50.9277C73.1934-53.3691 75.0977-54.6387 77.7344-54.6387C81.2012-54.6387 83.4473-52.6855 83.4473-49.6582C83.4473-46.6309 80.8105-44.6289 75.8789-41.2598C71.4355-38.1836 68.457-35.2051 68.457-30.5664L68.457-30.127C68.457-25.9277 71.3867-23.7305 76.6113-23.7305ZM76.6113-3.27148C81.543-3.27148 85.2539-6.29883 85.2539-10.9863C85.2539-15.6738 81.543-18.75 76.6113-18.75C71.6309-18.75 67.8223-15.7227 67.8223-10.9863C67.8223-6.29883 71.6797-3.27148 76.6113-3.27148Z"/>
  </g>
  <g id="Bold-L" transform="matrix(1 0 0 1 2262.88 1556)">
   <path d="M77.0996 30.5664C113.232 30.5664 142.92 0.878906 142.92-35.2539C142.92-71.3379 113.184-101.074 77.0508-101.074C40.9668-101.074 11.2793-71.3379 11.2793-35.2539C11.2793 0.878906 41.0156 30.5664 77.0996 30.5664ZM77.0996 15.8203C48.8281 15.8203 26.0742-6.98242 26.0742-35.2539C26.0742-63.5254 48.7793-86.2793 77.0508-86.2793C105.371-86.2793 128.125-63.5254 128.174-35.2539C128.174-6.98242 105.371 15.8203 77.0996 15.8203ZM75.5859-23.2422C79.1992-23.2422 81.6406-25.1953 82.0312-27.7344C82.0312-28.0273 82.0801-28.3691 82.0801-28.6133C82.4707-31.6406 84.8633-33.7402 88.6719-36.1816C95.1172-40.332 98.5352-43.8965 98.5352-50.7812C98.5352-61.084 89.1602-67.4316 77.5391-67.4316C66.8457-67.4316 59.375-62.6953 57.2754-56.6406C56.8359-55.4688 56.5918-54.3945 56.5918-53.1738C56.5918-50.0488 59.0332-47.8027 62.6465-47.8027C66.2598-47.8027 67.3828-49.6094 69.043-51.4648C70.9473-54.4434 73.3887-56.25 76.8066-56.25C81.2012-56.25 84.082-53.7598 84.082-50.0488C84.082-46.582 81.4941-44.4824 76.2695-40.918C71.7773-37.793 68.75-34.668 68.75-29.5898L68.75-28.9062C68.75-25.1953 71.1914-23.2422 75.5859-23.2422ZM75.5371-3.51562C79.8828-3.51562 83.3496-6.44531 83.3496-10.6445C83.3496-14.8926 79.9316-17.8223 75.5371-17.8223C71.0938-17.8223 67.627-14.8926 67.627-10.6445C67.627-6.44531 71.1426-3.51562 75.5371-3.51562Z"/>
  </g>
  <g id="Semibold-L" transform="matrix(1 0 0 1 1966.97 1556)">
   <path d="M76.2695 29.7363C111.914 29.7363 141.309 0.390625 141.309-35.2539C141.309-70.8984 111.865-100.244 76.2695-100.244C40.625-100.244 11.2793-70.8984 11.2793-35.2539C11.2793 0.390625 40.6738 29.7363 76.2695 29.7363ZM76.2695 17.041C47.3145 17.041 24.0234-6.25 24.0234-35.2539C24.0234-64.209 47.2656-87.5488 76.2695-87.5488C105.225-87.5488 128.564-64.209 128.613-35.2539C128.662-6.25 105.273 17.041 76.2695 17.041ZM74.8535-22.9004C78.125-22.9004 80.3223-24.7559 80.5176-27.1973C80.5664-27.4902 80.5664-27.832 80.5664-28.125C80.8105-31.3965 83.0566-33.5449 87.1582-36.2305C93.5059-40.332 97.1191-43.9941 97.1191-50.9277C97.1191-61.0352 87.9883-67.1387 76.7578-67.1387C66.1133-67.1387 58.8867-62.207 56.9336-56.1523C56.5918-55.0781 56.3477-54.0527 56.3477-52.9297C56.3477-50.0488 58.5938-48.0957 61.5723-48.0957C64.9902-48.0957 65.918-49.8535 67.5781-51.8066C69.3848-55.1758 72.168-57.373 76.1719-57.373C81.25-57.373 84.5215-54.4922 84.5215-50.293C84.5215-46.5332 81.9336-44.3848 76.5625-40.6738C71.9727-37.5 68.9453-34.3262 68.9453-28.9551L68.9453-28.0762C68.9453-24.6582 71.0938-22.9004 74.8535-22.9004ZM74.7559-3.71094C78.7598-3.71094 81.9824-6.54297 81.9824-10.4492C81.9824-14.3555 78.8086-17.1387 74.7559-17.1387C70.752-17.1387 67.5293-14.3066 67.5293-10.4492C67.5293-6.54297 70.752-3.71094 74.7559-3.71094Z"/>
  </g>
  <g id="Medium-L" transform="matrix(1 0 0 1 1670.87 1556)">
   <path d="M75.6836 29.1504C110.938 29.1504 140.088 0 140.088-35.2539C140.088-70.5078 110.889-99.6582 75.6348-99.6582C40.3809-99.6582 11.2793-70.5078 11.2793-35.2539C11.2793 0 40.3809 29.1504 75.6836 29.1504ZM75.6836 18.0176C46.1426 18.0176 22.4609-5.76172 22.4609-35.2539C22.4609-64.7461 46.1426-88.5254 75.6348-88.5254C105.127-88.5254 128.906-64.7461 128.906-35.2539C128.955-5.76172 105.176 18.0176 75.6836 18.0176ZM74.3164-22.6562C77.3438-22.6562 79.2969-24.4141 79.3945-26.7578C79.3945-27.0996 79.4434-27.4414 79.4434-27.7832C79.5898-31.2012 81.6895-33.3984 85.9863-36.2305C92.2852-40.3809 96.0449-44.043 96.0449-51.0742C96.0449-61.0352 87.0605-66.9434 76.1719-66.9434C65.5762-66.9434 58.4473-61.8652 56.7383-55.8594C56.3965-54.7852 56.2012-53.8086 56.2012-52.6855C56.2012-50.0488 58.3008-48.3398 60.791-48.3398C64.0137-48.3398 64.7949-50.0488 66.4062-52.0508C68.2129-55.7617 71.2891-58.2031 75.6836-58.2031C81.25-58.2031 84.8633-55.0781 84.8633-50.4883C84.8633-46.5332 82.2754-44.3359 76.7578-40.4785C72.168-37.2559 69.0918-34.0332 69.0918-28.418L69.0918-27.4414C69.0918-24.2676 70.9961-22.6562 74.3164-22.6562ZM74.2188-3.85742C77.9297-3.85742 81.0059-6.5918 81.0059-10.2539C81.0059-13.916 77.9785-16.6504 74.2188-16.6504C70.459-16.6504 67.4316-13.8672 67.4316-10.2539C67.4316-6.64062 70.5078-3.85742 74.2188-3.85742Z"/>
  </g>
  <g id="Regular-L" transform="matrix(1 0 0 1 1374.97 1556)">
   <path d="M74.8535 28.3203C109.668 28.3203 138.477-0.488281 138.477-35.2539C138.477-70.0684 109.619-98.877 74.8047-98.877C40.0391-98.877 11.2793-70.0684 11.2793-35.2539C11.2793-0.488281 40.0879 28.3203 74.8535 28.3203ZM74.8535 19.2383C44.6777 19.2383 20.4102-5.07812 20.4102-35.2539C20.4102-65.4785 44.6289-89.7461 74.8047-89.7461C105.029-89.7461 129.297-65.4785 129.346-35.2539C129.395-5.07812 105.078 19.2383 74.8535 19.2383ZM73.584-22.3145C76.3184-22.3145 77.9297-24.0234 77.9297-26.1719L77.9297-27.2949C77.9297-30.957 79.9316-33.2031 84.4727-36.2305C90.7227-40.3809 94.6289-44.0918 94.6289-51.2207C94.6289-61.0352 85.8398-66.6504 75.3906-66.6504C64.8438-66.6504 57.959-61.377 56.4453-55.3711C56.1523-54.4434 55.957-53.4668 55.957-52.4414C55.957-50 57.8613-48.6816 59.7168-48.6816C62.7441-48.6816 63.3301-50.293 64.9414-52.3926C66.6992-56.4941 70.0684-59.2773 75.0488-59.2773C81.2988-59.2773 85.2539-55.8105 85.2539-50.7812C85.2539-46.4844 82.7637-44.2383 77.0508-40.2832C72.3633-36.9629 69.2871-33.6914 69.2871-27.7832L69.2871-26.5625C69.2871-23.7793 70.8496-22.3145 73.584-22.3145ZM73.4863-4.00391C76.8066-4.00391 79.6875-6.68945 79.6875-10.0098C79.6875-13.3789 76.8555-16.0156 73.4863-16.0156C70.0684-16.0156 67.2852-13.3301 67.2852-10.0098C67.2852-6.73828 70.1172-4.00391 73.4863-4.00391Z"/>
  </g>
  <g id="Light-L" transform="matrix(1 0 0 1 1079.18 1556)">
   <path d="M73.9258 27.3926C108.301 27.3926 136.621-0.927734 136.621-35.2539C136.621-69.6289 108.252-97.9492 73.9258-97.9492C39.5508-97.9492 11.2793-69.6289 11.2793-35.2539C11.2793-0.927734 39.5996 27.3926 73.9258 27.3926ZM73.9258 20.5078C43.1152 20.5078 18.2129-4.44336 18.2129-35.2539C18.2129-66.1133 43.0664-91.0156 73.9258-91.0156C104.736-91.0156 129.688-66.1133 129.736-35.2539C129.736-4.44336 104.785 20.5078 73.9258 20.5078ZM72.7539-22.4121C74.8047-22.4121 76.0742-23.7793 76.0742-25.5371L76.0742-27.0996C76.0742-30.9082 77.9297-33.252 82.7148-36.4746C89.1113-40.7715 92.4316-44.4824 92.4316-51.0254C92.4316-59.9121 84.4727-65.5762 74.3164-65.5762C64.1602-65.5762 57.5195-60.0586 56.2988-53.8086C56.1035-52.9297 55.957-52.0508 55.957-51.123C55.957-49.2188 57.4219-48.1445 58.9355-48.1445C61.2305-48.1445 61.8652-49.4141 62.8906-51.123C64.1602-56.0547 68.0664-59.7656 74.0234-59.7656C80.9082-59.7656 85.3027-56.0059 85.3027-50.6348C85.3027-46.3379 82.9102-43.8477 77.002-39.7461C72.0703-36.2793 69.4336-33.0078 69.4336-27.4902L69.4336-25.7812C69.4336-23.6328 70.6543-22.4121 72.7539-22.4121ZM72.6562-4.83398C75.5859-4.83398 78.0273-7.22656 78.0273-10.1074C78.0273-13.0371 75.5859-15.3809 72.6562-15.3809C69.6777-15.3809 67.2852-12.9883 67.2852-10.1074C67.2852-7.27539 69.7266-4.83398 72.6562-4.83398Z"/>
  </g>
  <g id="Thin-L" transform="matrix(1 0 0 1 783.693 1556)">
   <path d="M72.7051 26.1719C106.494 26.1719 134.18-1.51367 134.18-35.2539C134.18-69.043 106.494-96.7285 72.7051-96.7285C38.9648-96.7285 11.2793-69.043 11.2793-35.2539C11.2793-1.51367 38.9648 26.1719 72.7051 26.1719ZM72.7051 22.168C41.0156 22.168 15.2832-3.56445 15.2832-35.2539C15.2832-66.9922 41.0156-92.7246 72.7051-92.7246C104.395-92.7246 130.176-66.9922 130.176-35.2539C130.176-3.56445 104.443 22.168 72.7051 22.168ZM71.6309-22.6074C72.8027-22.6074 73.584-23.4375 73.584-24.6582L73.584-26.8066C73.584-30.8594 75.3418-33.252 80.3711-36.7188C87.0117-41.2598 89.5508-44.9707 89.5508-50.7812C89.5508-58.4961 82.6172-64.1113 72.9004-64.1113C63.2324-64.1113 56.9824-58.3496 56.1523-51.7578C56.0547-50.9766 55.957-50.2441 55.957-49.4141C55.957-48.1934 56.8359-47.4609 57.9102-47.4609C59.2285-47.4609 59.8633-48.1934 60.1562-49.4141C60.791-55.4688 65.3809-60.4492 72.7051-60.4492C80.4688-60.4492 85.3027-56.25 85.3027-50.4883C85.3027-46.1914 83.1543-43.3594 76.9531-39.0625C71.6797-35.3516 69.5801-32.1289 69.5801-27.0996L69.5801-24.707C69.5801-23.4375 70.4102-22.6074 71.6309-22.6074ZM71.5332-5.95703C73.9258-5.95703 75.8301-7.95898 75.8301-10.2051C75.8301-12.5488 73.9258-14.502 71.5332-14.502C69.1406-14.502 67.2363-12.5488 67.2363-10.2051C67.2363-7.95898 69.1406-5.95703 71.5332-5.95703Z"/>
  </g>
  <g id="Ultralight-L" transform="matrix(1 0 0 1 487.616 1556)">
   <path d="M72.1191 25.5371C105.566 25.5371 132.91-1.80664 132.91-35.2539C132.91-68.75 105.566-96.0938 72.1191-96.0938C38.623-96.0938 11.2793-68.75 11.2793-35.2539C11.2793-1.80664 38.623 25.5371 72.1191 25.5371ZM72.1191 23.0469C39.9414 23.0469 13.7695-3.125 13.7695-35.2539C13.7695-67.4316 39.9414-93.6035 72.1191-93.6035C104.248-93.6035 130.42-67.4316 130.42-35.2539C130.42-3.125 104.248 23.0469 72.1191 23.0469ZM71.0449-22.7051C71.8262-22.7051 72.3145-23.291 72.3145-24.2188L72.3145-26.6602C72.3145-30.8105 73.9746-33.252 79.1992-36.8652C85.9375-41.5039 88.0859-45.2148 88.0859-50.6348C88.0859-57.7637 81.6406-63.3789 72.168-63.3789C62.7441-63.3789 56.7383-57.4219 56.1035-50.6836C56.0547-50 55.957-49.2676 55.957-48.5352C55.957-47.6562 56.543-47.0703 57.4219-47.0703C58.2031-47.0703 58.8379-47.6074 58.7402-48.5352C59.082-55.127 64.0137-60.7422 72.0703-60.7422C80.2246-60.7422 85.3516-56.3965 85.3516-50.4395C85.3516-46.0938 83.3008-43.1152 76.9531-38.7207C71.4844-34.8633 69.6777-31.6895 69.6777-26.9043L69.6777-24.1699C69.6777-23.3398 70.3125-22.7051 71.0449-22.7051ZM70.9961-6.49414C73.0957-6.49414 74.7559-8.34961 74.7559-10.3027C74.7559-12.3047 73.0957-14.0625 70.9961-14.0625C68.8477-14.0625 67.2363-12.3047 67.2363-10.3027C67.2363-8.34961 68.8477-6.49414 70.9961-6.49414Z"/>
  </g>
  <g id="Black-M" transform="matrix(1 0 0 1 2870.97 1126)">
   <path d="M62.4023 18.457C91.9922 18.457 116.113-5.61523 116.113-35.2051C116.113-64.7949 91.9922-88.8672 62.4023-88.8672C32.8125-88.8672 8.74023-64.7949 8.74023-35.2051C8.74023-5.61523 32.8125 18.457 62.4023 18.457ZM62.4023 0.195312C42.8711 0.195312 27.002-15.625 27.002-35.2051C27.002-54.7363 42.8711-70.6055 62.4023-70.6055C81.9824-70.6055 97.8027-54.7363 97.8027-35.2051C97.8027-15.625 81.9824 0.195312 62.4023 0.195312ZM60.8887-27.3438C64.6484-27.3438 67.5293-28.9551 68.3105-31.25C68.3594-31.4453 68.457-31.6895 68.5059-31.8359C69.3359-33.3496 71.7285-34.7656 73.7305-36.0352C79.0527-39.2578 80.7617-41.8945 80.7617-46.6309C80.7617-54.7363 73.0469-60.7422 62.5-60.7422C54.2969-60.7422 47.8516-57.7148 45.459-52.6855C44.9707-51.6602 44.7266-50.6348 44.7266-49.4629C44.7266-46.3379 47.0703-43.4082 52.1973-43.4082C55.4688-43.4082 57.1289-44.8242 58.1543-45.752C59.6191-47.0215 60.4004-47.5098 61.5234-47.5098C62.6953-47.5098 63.4277-46.8262 63.4277-45.6055C63.4277-44.0918 61.4746-42.627 57.959-40.2344C54.5898-37.9395 52.5879-35.8398 52.5879-33.3008L52.5879-33.1543C52.5879-29.3457 55.5176-27.3438 60.8887-27.3438ZM60.9375-10.4004C65.625-10.4004 68.8477-12.8418 68.8477-17.1387C68.8477-21.4355 65.625-23.9258 60.9375-23.9258C56.2988-23.9258 52.9297-21.4844 52.9297-17.1387C52.9297-12.8418 56.2988-10.4004 60.9375-10.4004Z"/>
  </g>
  <g id="Heavy-M" transform="matrix(1 0 0 1 2575.19 1126)">
   <path d="M61.5234 17.5293C90.5273 17.5293 114.258-6.20117 114.258-35.2051C114.258-64.2578 90.5273-87.9883 61.4746-87.9883C32.4707-87.9883 8.74023-64.2578 8.74023-35.2051C8.74023-6.20117 32.4707 17.5293 61.5234 17.5293ZM61.5234 1.61133C41.1133 1.61133 24.6582-14.8438 24.6582-35.2051C24.6582-55.6152 41.1133-72.0703 61.4746-72.0703C81.8848-72.0703 98.3398-55.6152 98.3398-35.2051C98.3398-14.8438 81.8848 1.61133 61.5234 1.61133ZM60.1074-26.8066C63.5742-26.8066 66.1133-28.418 66.6992-30.6152C66.748-30.8105 66.7969-31.0547 66.8457-31.2012C67.4805-33.0078 69.6777-34.5215 72.0215-35.9863C77.1973-39.209 79.2969-41.8945 79.2969-46.875C79.2969-54.9805 71.6797-60.5957 61.7188-60.5957C53.418-60.5957 47.2168-57.373 45.0684-52.4902C44.6289-51.4648 44.3848-50.5371 44.3848-49.4141C44.3848-46.5332 46.6309-43.9941 50.9277-43.9941C54.0527-43.9941 55.4199-45.459 56.5918-46.582C58.1055-48.1934 59.2285-48.9746 60.8398-48.9746C62.793-48.9746 64.0625-47.8027 64.0625-46.0449C64.0625-44.0918 62.0605-42.5781 58.3984-40.0391C54.9805-37.7441 52.832-35.498 52.832-32.4219L52.832-32.1777C52.832-28.6621 55.4199-26.8066 60.1074-26.8066ZM60.1074-10.4492C64.3555-10.4492 67.3828-12.8418 67.3828-16.7969C67.3828-20.752 64.3555-23.1445 60.1074-23.1445C55.9082-23.1445 52.7344-20.752 52.7344-16.7969C52.7344-12.8418 55.9082-10.4492 60.1074-10.4492Z"/>
  </g>
  <g id="Bold-M" transform="matrix(1 0 0 1 2279.5 1126)">
   <path d="M60.498 16.5039C88.8672 16.5039 112.207-6.83594 112.207-35.2051C112.207-63.623 88.8672-86.9629 60.4492-86.9629C32.0312-86.9629 8.74023-63.623 8.74023-35.2051C8.74023-6.83594 32.0801 16.5039 60.498 16.5039ZM60.498 3.22266C39.1602 3.22266 22.0703-13.916 22.0703-35.2051C22.0703-56.543 39.1602-73.6816 60.4492-73.6816C81.7383-73.6816 98.9258-56.543 98.9258-35.2051C98.9746-13.916 81.7871 3.22266 60.498 3.22266ZM59.2285-26.2207C62.3047-26.2207 64.502-27.832 64.8926-29.9316C64.9414-30.127 64.9414-30.3711 64.9902-30.5176C65.3809-32.666 67.3828-34.2285 70.1172-35.9375C75.1465-39.1602 77.6367-41.8945 77.6367-47.168C77.6367-55.2734 70.166-60.498 60.791-60.498C52.4902-60.498 46.4844-56.9824 44.6289-52.2461C44.2383-51.2695 44.043-50.3906 44.043-49.3652C44.043-46.7285 46.0938-44.6777 49.4629-44.6777C52.4902-44.6777 53.5156-46.1426 54.834-47.5098C56.3965-49.5117 57.959-50.5371 60.1074-50.5371C62.9395-50.5371 64.7461-48.9258 64.7461-46.4844C64.7461-44.043 62.7441-42.5293 58.8379-39.8438C55.4199-37.4512 53.125-35.1074 53.125-31.4453L53.125-31.1035C53.125-27.8809 55.2734-26.2207 59.2285-26.2207ZM59.1797-10.498C62.9395-10.498 65.7715-12.793 65.7715-16.4062C65.7715-19.9707 62.9395-22.3145 59.1797-22.3145C55.4199-22.3145 52.5391-19.9707 52.5391-16.4062C52.5391-12.8418 55.4688-10.498 59.1797-10.498Z"/>
  </g>
  <g id="Semibold-M" transform="matrix(1 0 0 1 1983.5 1126)">
   <path d="M59.7656 15.8203C87.7441 15.8203 110.791-7.27539 110.791-35.2539C110.791-63.2324 87.6953-86.2793 59.7656-86.2793C31.7871-86.2793 8.74023-63.2324 8.74023-35.2539C8.74023-7.27539 31.7871 15.8203 59.7656 15.8203ZM59.7656 4.3457C37.8418 4.3457 20.2637-13.3301 20.2637-35.2539C20.2637-57.1777 37.793-74.8047 59.7656-74.8047C81.6895-74.8047 99.3164-57.1777 99.3652-35.2539C99.3652-13.3301 81.6895 4.3457 59.7656 4.3457ZM58.5938-25.8301C61.4746-25.8301 63.3789-27.3926 63.623-29.4434C63.6719-29.6387 63.6719-29.8828 63.7207-30.0293C63.9648-32.373 65.8203-34.0332 68.7988-35.9375C73.6816-39.1113 76.5137-41.8945 76.5137-47.3633C76.5137-55.4688 69.1406-60.3516 60.1562-60.3516C51.8066-60.3516 45.9961-56.6895 44.3359-52.0508C43.9941-51.1719 43.7988-50.293 43.7988-49.3652C43.7988-46.875 45.752-45.166 48.4863-45.166C51.416-45.166 52.2461-46.6309 53.6133-48.1445C55.1758-50.3906 57.0312-51.6602 59.6191-51.6602C63.0371-51.6602 65.2344-49.707 65.2344-46.7773C65.2344-44.043 63.1836-42.4805 59.1797-39.6973C55.7129-37.3047 53.3203-34.8633 53.3203-30.8105L53.3203-30.3223C53.3203-27.3438 55.1758-25.8301 58.5938-25.8301ZM58.5449-10.498C61.9629-10.498 64.6484-12.793 64.6484-16.1133C64.6484-19.4336 61.9629-21.7285 58.5449-21.7285C55.127-21.7285 52.3926-19.4336 52.3926-16.1133C52.3926-12.8418 55.127-10.498 58.5449-10.498Z"/>
  </g>
  <g id="Medium-M" transform="matrix(1 0 0 1 1687.3 1126)">
   <path d="M59.2285 15.2344C86.9141 15.2344 109.766-7.61719 109.766-35.2539C109.766-62.8906 86.8652-85.7422 59.1797-85.7422C31.543-85.7422 8.74023-62.8906 8.74023-35.2539C8.74023-7.61719 31.5918 15.2344 59.2285 15.2344ZM59.2285 5.17578C36.8164 5.17578 18.8965-12.8418 18.8965-35.2539C18.8965-57.666 36.8164-75.6348 59.1797-75.6348C81.5918-75.6348 99.6094-57.666 99.6582-35.2539C99.707-12.8418 81.6406 5.17578 59.2285 5.17578ZM58.1543-25.5371C60.8398-25.5371 62.5488-27.0996 62.6953-29.1016C62.6953-29.248 62.6953-29.4922 62.7441-29.6875C62.8906-32.1777 64.5996-33.8379 67.7734-35.9375C72.6074-39.0625 75.6836-41.8945 75.6836-47.5098C75.6836-55.6152 68.3594-60.3027 59.668-60.3027C51.3184-60.3027 45.6055-56.4941 44.0918-51.9043C43.7988-51.0742 43.6035-50.2441 43.6035-49.3652C43.6035-46.9727 45.459-45.5078 47.7051-45.5078C50.5859-45.5078 51.2207-46.9727 52.7344-48.6328C54.2969-51.0742 56.3477-52.4902 59.2285-52.4902C63.0859-52.4902 65.625-50.293 65.625-47.0215C65.625-44.043 63.5742-42.4316 59.4238-39.5996C55.957-37.1582 53.418-34.668 53.418-30.2734L53.418-29.7363C53.418-26.9531 55.127-25.5371 58.1543-25.5371ZM58.0566-10.5469C61.1816-10.5469 63.7695-12.793 63.7695-15.918C63.7695-18.9941 61.2305-21.2891 58.0566-21.2891C54.8828-21.2891 52.2949-18.9941 52.2949-15.918C52.2949-12.8418 54.8828-10.5469 58.0566-10.5469Z"/>
  </g>
  <g id="Regular-M" transform="matrix(1 0 0 1 1391.3 1126)">
   <path d="M58.5449 14.5508C85.791 14.5508 108.35-8.05664 108.35-35.2539C108.35-62.5 85.7422-85.0586 58.4961-85.0586C31.2988-85.0586 8.74023-62.5 8.74023-35.2539C8.74023-8.05664 31.3477 14.5508 58.5449 14.5508ZM58.5449 6.25C35.498 6.25 17.0898-12.207 17.0898-35.2539C17.0898-58.3008 35.4492-76.7578 58.4961-76.7578C81.543-76.7578 100-58.3008 100.049-35.2539C100.098-12.207 81.5918 6.25 58.5449 6.25ZM57.5195-25.1465C59.9609-25.1465 61.4746-26.6602 61.4746-28.6133L61.4746-29.1992C61.4746-31.9336 63.0371-33.6426 66.4551-35.8887C71.1914-39.0137 74.5605-41.8945 74.5605-47.7051C74.5605-55.8594 67.334-60.2051 59.0332-60.2051C50.6348-60.2051 45.1172-56.25 43.7988-51.7578C43.5547-50.9277 43.3594-50.1465 43.3594-49.3164C43.3594-47.168 45.1172-45.9473 46.7285-45.9473C49.5117-45.9473 49.9512-47.4609 51.5137-49.2676C53.125-51.9531 55.4688-53.5645 58.7402-53.5645C63.1836-53.5645 66.0645-51.0742 66.0645-47.3145C66.0645-43.9941 64.0137-42.3828 59.7656-39.4531C56.25-37.0117 53.6133-34.4238 53.6133-29.6387L53.6133-29.0039C53.6133-26.416 55.0293-25.1465 57.5195-25.1465ZM57.4219-10.5469C60.2539-10.5469 62.6953-12.793 62.6953-15.625C62.6953-18.5059 60.3027-20.7031 57.4219-20.7031C54.541-20.7031 52.1484-18.457 52.1484-15.625C52.1484-12.8418 54.5898-10.5469 57.4219-10.5469Z"/>
  </g>
  <g id="Light-M" transform="matrix(1 0 0 1 1095.42 1126)">
   <path d="M57.7148 13.7207C84.5215 13.7207 106.689-8.44727 106.689-35.2539C106.689-62.1094 84.5215-84.2285 57.666-84.2285C30.8594-84.2285 8.74023-62.1094 8.74023-35.2539C8.74023-8.44727 30.9082 13.7207 57.7148 13.7207ZM57.7148 7.37305C34.082 7.37305 15.0879-11.6699 15.0879-35.2539C15.0879-58.8867 34.082-77.9297 57.666-77.9297C81.2988-77.9297 100.342-58.8867 100.391-35.2539C100.391-11.6699 81.3477 7.37305 57.7148 7.37305ZM56.7871-25.2441C58.6426-25.2441 59.7656-26.4648 59.7656-28.0273L59.7656-29.0039C59.7656-31.8848 61.2793-33.6914 64.8926-36.084C69.7754-39.3555 72.6074-42.2363 72.6074-47.5586C72.6074-54.8828 66.0645-59.2285 58.1055-59.2285C50.0488-59.2285 44.7754-55.0781 43.7012-50.3418C43.5059-49.6094 43.3594-48.877 43.3594-48.1445C43.3594-46.4355 44.7266-45.459 46.0449-45.459C48.1445-45.459 48.584-46.6309 49.6582-48.0957C50.8301-51.5625 53.6621-54.0039 57.8125-54.0039C62.8906-54.0039 66.1133-51.2207 66.1133-47.2168C66.1133-43.8965 64.1602-42.0898 59.7168-38.9648C56.0059-36.377 53.7598-33.7891 53.7598-29.3457L53.7598-28.2715C53.7598-26.3184 54.834-25.2441 56.7871-25.2441ZM56.6895-11.3281C59.1309-11.3281 61.1816-13.2812 61.1816-15.7227C61.1816-18.1641 59.1797-20.1172 56.6895-20.1172C54.1992-20.1172 52.1484-18.1641 52.1484-15.7227C52.1484-13.3301 54.1992-11.3281 56.6895-11.3281Z"/>
  </g>
  <g id="Thin-M" transform="matrix(1 0 0 1 799.806 1126)">
   <path d="M56.6406 12.5977C82.9102 12.5977 104.492-8.98438 104.492-35.2539C104.492-61.5723 82.9102-83.1543 56.5918-83.1543C30.3223-83.1543 8.74023-61.5723 8.74023-35.2539C8.74023-8.98438 30.3223 12.5977 56.6406 12.5977ZM56.6406 8.88672C32.2266 8.88672 12.4512-10.8887 12.4512-35.2539C12.4512-59.6191 32.2266-79.4434 56.5918-79.4434C81.0059-79.4434 100.781-59.6191 100.781-35.2539C100.781-10.8887 81.0059 8.88672 56.6406 8.88672ZM55.7617-25.3906C56.8848-25.3906 57.5684-26.1719 57.5684-27.1973L57.5684-28.7598C57.5684-31.8359 58.9355-33.6914 62.793-36.3281C67.8711-39.7949 70.0195-42.6758 70.0195-47.3145C70.0195-53.5645 64.4043-57.9102 56.8359-57.9102C49.1699-57.9102 44.2871-53.5156 43.5547-48.4863C43.457-47.8516 43.3594-47.2656 43.3594-46.582C43.3594-45.5078 44.1895-44.8242 45.1172-44.8242C46.3379-44.8242 46.8262-45.5566 47.2168-46.582C47.8516-51.0254 51.2207-54.6387 56.6406-54.6387C62.4512-54.6387 66.1133-51.4648 66.1133-47.1191C66.1133-43.75 64.4043-41.6504 59.668-38.3301C55.6152-35.5469 53.9062-33.0078 53.9062-29.0039L53.9062-27.2949C53.9062-26.123 54.6387-25.3906 55.7617-25.3906ZM55.6641-12.3047C57.666-12.3047 59.2773-13.9648 59.2773-15.8203C59.2773-17.7734 57.666-19.3359 55.6641-19.3359C53.7109-19.3359 52.0996-17.7246 52.0996-15.8203C52.0996-13.9648 53.7109-12.3047 55.6641-12.3047Z"/>
  </g>
  <g id="Ultralight-M" transform="matrix(1 0 0 1 503.656 1126)">
   <path d="M56.0547 12.0605C82.0801 12.0605 103.369-9.22852 103.369-35.2539C103.369-61.2793 82.0801-82.5684 56.0547-82.5684C30.0293-82.5684 8.74023-61.2793 8.74023-35.2539C8.74023-9.22852 30.0293 12.0605 56.0547 12.0605ZM56.0547 9.66797C31.2988 9.66797 11.1328-10.498 11.1328-35.2539C11.1328-60.0586 31.2988-80.1758 56.0547-80.1758C80.8594-80.1758 100.977-60.0586 100.977-35.2539C100.977-10.498 80.8594 9.66797 56.0547 9.66797ZM55.2246-25.4883C55.957-25.4883 56.4453-26.0254 56.4453-26.8066L56.4453-28.6621C56.4453-31.8359 57.7148-33.6914 61.7188-36.4746C66.9434-40.0391 68.7012-42.8711 68.7012-47.2168C68.7012-52.9297 63.5742-57.2754 56.1523-57.2754C48.7793-57.2754 44.043-52.6855 43.5059-47.5098C43.457-46.9727 43.3594-46.3867 43.3594-45.8008C43.3594-45.0195 43.8965-44.5312 44.6289-44.5312C45.4102-44.5312 45.8984-45.0195 45.9473-45.8008C46.2891-50.7812 50-54.9316 56.0547-54.9316C62.2559-54.9316 66.1133-51.6113 66.1133-47.0215C66.1133-43.6523 64.502-41.4062 59.6191-38.0371C55.4688-35.1074 53.9551-32.6172 53.9551-28.8086L53.9551-26.8066C53.9551-26.0254 54.541-25.4883 55.2246-25.4883ZM55.1758-12.793C56.8848-12.793 58.252-14.3066 58.252-15.8691C58.252-17.5293 56.8848-18.9453 55.1758-18.9453C53.4668-18.9453 52.0996-17.5293 52.0996-15.8691C52.0996-14.3066 53.4668-12.793 55.1758-12.793Z"/>
  </g>
  <g id="Black-S" transform="matrix(1 0 0 1 2884.57 696)">
   <path d="M48.8281 6.78711C71.9727 6.78711 90.8203-12.0605 90.8203-35.2051C90.8203-58.3496 71.9727-77.1973 48.8281-77.1973C25.6836-77.1973 6.83594-58.3496 6.83594-35.2051C6.83594-12.0605 25.6836 6.78711 48.8281 6.78711ZM48.8281-7.37305C33.4473-7.37305 20.9961-19.8242 20.9961-35.2051C20.9961-50.5859 33.4473-63.0371 48.8281-63.0371C64.209-63.0371 76.6602-50.5859 76.6602-35.2051C76.6602-19.8242 64.209-7.37305 48.8281-7.37305ZM47.6562-29.0039C50.5859-29.0039 52.832-30.2734 53.418-32.0801C53.4668-32.2266 53.5156-32.4219 53.5645-32.5195C54.1992-33.7402 56.0547-34.8633 57.666-35.8398C61.8164-38.3789 63.1836-40.4297 63.1836-44.1895C63.1836-50.5371 57.1289-55.2246 48.9258-55.2246C42.4805-55.2246 37.4512-52.832 35.5957-48.9258C35.2051-48.0957 35.0098-47.3145 35.0098-46.3867C35.0098-43.9453 36.8652-41.6992 40.8203-41.6992C43.3594-41.6992 44.6289-42.8223 45.459-43.5547C46.6309-44.5801 47.2656-44.9707 48.1445-44.9707C49.1211-44.9707 49.7559-44.3848 49.7559-43.4082C49.7559-42.1875 48.1934-41.0156 45.459-39.1602C42.8223-37.3535 41.2109-35.6934 41.2109-33.6426L41.2109-33.5449C41.2109-30.5664 43.5059-29.0039 47.6562-29.0039ZM47.7051-15.7715C51.3184-15.7715 53.8574-17.6758 53.8574-21.0449C53.8574-24.3652 51.3184-26.3184 47.7051-26.3184C44.0918-26.3184 41.4551-24.4141 41.4551-21.0449C41.4551-17.6758 44.0918-15.7715 47.7051-15.7715Z"/>
  </g>
  <g id="Heavy-S" transform="matrix(1 0 0 1 2588.47 696)">
   <path d="M48.2422 6.15234C70.9961 6.15234 89.5996-12.4512 89.5996-35.2051C89.5996-57.959 70.9961-76.6113 48.1934-76.6113C25.4395-76.6113 6.83594-57.959 6.83594-35.2051C6.83594-12.4512 25.4395 6.15234 48.2422 6.15234ZM48.2422-6.39648C32.2754-6.39648 19.4336-19.2871 19.4336-35.2051C19.4336-51.1719 32.2754-64.0137 48.1934-64.0137C64.1602-64.0137 77.002-51.1719 77.0508-35.2051C77.0508-19.2871 64.1602-6.39648 48.2422-6.39648ZM47.1191-28.6133C49.9023-28.6133 51.9043-29.8828 52.3438-31.6895C52.3926-31.7871 52.4414-31.9824 52.4902-32.0801C52.9785-33.4961 54.6875-34.668 56.543-35.791C60.5469-38.2812 62.3047-40.3809 62.3047-44.3848C62.3047-50.8301 56.25-55.2246 48.3887-55.2246C41.8945-55.2246 37.0117-52.6855 35.3027-48.9258C34.9609-48.0957 34.7656-47.3633 34.7656-46.4844C34.7656-44.1895 36.5723-42.1875 39.8926-42.1875C42.4316-42.1875 43.5059-43.3594 44.4824-44.3359C45.7031-45.5078 46.582-45.9961 47.7539-45.9961C49.2676-45.9961 50.2441-45.1172 50.2441-43.75C50.2441-42.1875 48.6328-41.0156 45.8008-39.0625C43.1641-37.2559 41.4062-35.498 41.4062-33.0078L41.4062-32.8613C41.4062-30.0781 43.4082-28.6133 47.1191-28.6133ZM47.168-15.7227C50.4883-15.7227 52.8809-17.627 52.8809-20.752C52.8809-23.877 50.4883-25.7812 47.168-25.7812C43.7988-25.7812 41.3086-23.877 41.3086-20.752C41.3086-17.627 43.8477-15.7227 47.168-15.7227Z"/>
  </g>
  <g id="Bold-S" transform="matrix(1 0 0 1 2292.44 696)">
   <path d="M47.5586 5.46875C69.873 5.46875 88.2324-12.8906 88.2324-35.2539C88.2324-57.5684 69.873-75.9277 47.5098-75.9277C25.1953-75.9277 6.83594-57.5684 6.83594-35.2539C6.83594-12.8906 25.1953 5.46875 47.5586 5.46875ZM47.5586-5.32227C30.957-5.32227 17.6758-18.6523 17.6758-35.2539C17.6758-51.8066 30.957-65.1367 47.5098-65.1367C64.1113-65.1367 77.4414-51.8066 77.4414-35.2539C77.4414-18.6523 64.1113-5.32227 47.5586-5.32227ZM46.5332-28.125C49.1211-28.125 50.8789-29.4434 51.1719-31.2012C51.2207-31.2988 51.2207-31.4453 51.2695-31.543C51.5625-33.2031 53.1738-34.4238 55.2734-35.7422C59.1309-38.2324 61.2793-40.3809 61.2793-44.6289C61.2793-51.1719 55.2734-55.2246 47.8027-55.2246C41.2598-55.2246 36.4746-52.5391 34.9609-48.877C34.668-48.1445 34.5215-47.4121 34.5215-46.6309C34.5215-44.4336 36.1816-42.7734 38.8672-42.7734C41.4062-42.7734 42.1875-43.9941 43.3594-45.166C44.6777-46.5332 45.8008-47.168 47.3145-47.168C49.4141-47.168 50.7812-45.9473 50.7812-44.0918C50.7812-42.1875 49.1211-41.0156 46.1426-38.9648C43.5059-37.1094 41.6016-35.3027 41.6016-32.3242L41.6016-32.1289C41.6016-29.4922 43.3594-28.125 46.5332-28.125ZM46.5332-15.6738C49.5117-15.6738 51.8555-17.5293 51.8555-20.459C51.8555-23.3398 49.5605-25.2441 46.5332-25.2441C43.5059-25.2441 41.1621-23.3398 41.1621-20.459C41.1621-17.5781 43.5059-15.6738 46.5332-15.6738Z"/>
  </g>
  <g id="Semibold-S" transform="matrix(1 0 0 1 1996.2 696)">
   <path d="M47.0703 4.98047C69.0918 4.98047 87.3047-13.1836 87.3047-35.2539C87.3047-57.2754 69.0918-75.4883 47.0215-75.4883C25-75.4883 6.83594-57.2754 6.83594-35.2539C6.83594-13.1836 25.0488 4.98047 47.0703 4.98047ZM47.0703-4.58984C30.0781-4.58984 16.4551-18.2129 16.4551-35.2539C16.4551-52.2461 30.0293-65.8691 47.0215-65.8691C64.0625-65.8691 77.6855-52.2461 77.7344-35.2539C77.7344-18.2129 64.0625-4.58984 47.0703-4.58984ZM46.1426-27.832C48.584-27.832 50.1953-29.1504 50.3906-30.9082C50.3906-30.957 50.3906-31.1035 50.4395-31.2012C50.6348-33.0078 52.0996-34.2773 54.3457-35.7422C58.1543-38.1348 60.5957-40.332 60.5957-44.8242C60.5957-51.416 54.541-55.2734 47.4121-55.2734C40.7715-55.2734 36.1328-52.4414 34.7656-48.877C34.4727-48.1445 34.3262-47.4609 34.3262-46.6797C34.3262-44.5801 35.9375-43.1641 38.1836-43.1641C40.6738-43.1641 41.3086-44.4336 42.5781-45.752C43.9453-47.2656 45.2637-47.998 46.9727-47.998C49.5117-47.998 51.123-46.5332 51.123-44.3359C51.123-42.1875 49.4629-41.0156 46.3867-38.8672C43.75-37.0605 41.6992-35.1074 41.6992-31.8359L41.6992-31.5918C41.6992-29.1016 43.3105-27.832 46.1426-27.832ZM46.0938-15.625C48.877-15.625 51.123-17.4805 51.123-20.2148C51.123-22.9492 48.9258-24.8047 46.0938-24.8047C43.3105-24.8047 41.0645-22.9004 41.0645-20.2148C41.0645-17.5293 43.3105-15.625 46.0938-15.625Z"/>
  </g>
  <g id="Medium-S" transform="matrix(1 0 0 1 1699.83 696)">
   <path d="M46.7285 4.63867C68.5547 4.63867 86.6211-13.4277 86.6211-35.2539C86.6211-57.0801 68.5059-75.1465 46.6797-75.1465C24.8535-75.1465 6.83594-57.0801 6.83594-35.2539C6.83594-13.4277 24.9023 4.63867 46.7285 4.63867ZM46.7285-4.00391C29.3945-4.00391 15.5273-17.9199 15.5273-35.2539C15.5273-52.5879 29.3457-66.4551 46.6797-66.4551C64.0137-66.4551 77.8809-52.5879 77.9297-35.2539C77.9785-17.9199 64.0625-4.00391 46.7285-4.00391ZM45.8496-27.5879C48.1934-27.5879 49.6582-28.9062 49.7559-30.6641C49.7559-30.7129 49.7559-30.8594 49.8047-30.957C49.9023-32.8613 51.3184-34.1309 53.7109-35.6934C57.4219-38.0859 60.0586-40.332 60.0586-44.9219C60.0586-51.6113 54.0527-55.2734 47.1191-55.2734C40.4297-55.2734 35.8887-52.3438 34.5703-48.877C34.3262-48.1445 34.1797-47.4609 34.1797-46.7773C34.1797-44.7266 35.791-43.457 37.6465-43.457C40.1367-43.457 40.6738-44.7754 42.041-46.1914C43.4082-47.8027 44.873-48.584 46.7285-48.584C49.5605-48.584 51.416-46.9727 51.416-44.5312C51.416-42.1875 49.7559-41.0156 46.582-38.8184C43.9453-37.0117 41.8457-35.0098 41.8457-31.4453L41.8457-31.2012C41.8457-28.8086 43.2617-27.5879 45.8496-27.5879ZM45.752-15.5762C48.3887-15.5762 50.5371-17.4805 50.5371-20.0684C50.5371-22.6562 48.3887-24.5117 45.752-24.5117C43.1152-24.5117 40.9668-22.6074 40.9668-20.0684C40.9668-17.4805 43.1641-15.5762 45.752-15.5762Z"/>
  </g>
  <g id="Regular-S" transform="matrix(1 0 0 1 1403.58 696)">
   <path d="M46.2402 4.15039C67.7734 4.15039 85.6934-13.7207 85.6934-35.2539C85.6934-56.7871 67.7246-74.6582 46.1914-74.6582C24.707-74.6582 6.83594-56.7871 6.83594-35.2539C6.83594-13.7207 24.7559 4.15039 46.2402 4.15039ZM46.2402-3.27148C28.5156-3.27148 14.3555-17.4805 14.3555-35.2539C14.3555-53.0273 28.4668-67.2363 46.1914-67.2363C63.9648-67.2363 78.1738-53.0273 78.2227-35.2539C78.2715-17.4805 64.0137-3.27148 46.2402-3.27148ZM45.459-27.2461C47.6562-27.2461 48.9746-28.6133 48.9746-30.3223L48.9746-30.5664C48.9746-32.666 50.2441-33.9844 52.832-35.6934C56.4453-38.0371 59.375-40.2832 59.375-45.0684C59.375-51.8555 53.3691-55.2734 46.7285-55.2734C39.9902-55.2734 35.5469-52.2461 34.375-48.877C34.1309-48.1934 33.9844-47.5098 33.9844-46.8262C33.9844-44.9219 35.5469-43.8477 36.9629-43.8477C39.4531-43.8477 39.7949-45.166 41.2598-46.7773C42.7246-48.5352 44.3359-49.3652 46.4355-49.3652C49.6582-49.3652 51.7578-47.5586 51.7578-44.7754C51.7578-42.1875 50.0977-41.0156 46.8262-38.7695C44.1895-36.9141 41.9434-34.8633 41.9434-30.957L41.9434-30.7129C41.9434-28.418 43.1641-27.2461 45.459-27.2461ZM45.3613-15.5273C47.7051-15.5273 49.8047-17.4316 49.8047-19.8242C49.8047-22.2656 47.7539-24.1211 45.3613-24.1211C42.9199-24.1211 40.8691-22.2168 40.8691-19.8242C40.8691-17.4805 42.9688-15.5273 45.3613-15.5273Z"/>
  </g>
  <g id="Light-S" transform="matrix(1 0 0 1 1107.6 696)">
   <path d="M45.5078 3.41797C66.6992 3.41797 84.2285-14.0625 84.2285-35.2539C84.2285-56.4453 66.6504-73.9258 45.5078-73.9258C24.3164-73.9258 6.83594-56.4453 6.83594-35.2539C6.83594-14.0625 24.3652 3.41797 45.5078 3.41797ZM45.5078-2.29492C27.2461-2.29492 12.5977-16.9922 12.5977-35.2539C12.5977-53.5156 27.1973-68.2129 45.5078-68.2129C63.7695-68.2129 78.4668-53.5156 78.5156-35.2539C78.5156-16.9922 63.8184-2.29492 45.5078-2.29492ZM44.7754-27.3438C46.4355-27.3438 47.4609-28.418 47.4609-29.7852L47.4609-30.4199C47.4609-32.6172 48.6816-33.9844 51.416-35.8398C55.2246-38.3301 57.6172-40.5762 57.6172-44.9219C57.6172-50.9766 52.2461-54.3945 45.8984-54.3945C39.4531-54.3945 35.2051-51.2207 34.2773-47.6074C34.082-47.0215 33.9844-46.4355 33.9844-45.8008C33.9844-44.2871 35.2051-43.457 36.3281-43.457C38.2324-43.457 38.5742-44.4824 39.5996-45.752C40.7227-48.1934 42.7246-49.8047 45.6543-49.8047C49.3652-49.8047 51.7578-47.7051 51.7578-44.6777C51.7578-42.0898 50.2441-40.7227 46.7773-38.3301C43.9453-36.377 42.041-34.3262 42.041-30.7129L42.041-30.0293C42.041-28.2715 43.0176-27.3438 44.7754-27.3438ZM44.6777-16.2109C46.7285-16.2109 48.5352-17.8711 48.5352-19.9219C48.5352-21.9727 46.7773-23.6328 44.6777-23.6328C42.5781-23.6328 40.8691-21.9727 40.8691-19.9219C40.8691-17.8711 42.627-16.2109 44.6777-16.2109Z"/>
  </g>
  <g id="Thin-S" transform="matrix(1 0 0 1 811.867 696)">
   <path d="M44.5801 2.49023C65.2832 2.49023 82.2754-14.5508 82.2754-35.2539C82.2754-55.957 65.2344-72.998 44.5312-72.998C23.8281-72.998 6.83594-55.957 6.83594-35.2539C6.83594-14.5508 23.877 2.49023 44.5801 2.49023ZM44.5801-0.927734C25.5859-0.927734 10.2539-16.3086 10.2539-35.2539C10.2539-54.1992 25.5859-69.5801 44.5312-69.5801C63.5254-69.5801 78.8574-54.1992 78.8574-35.2539C78.8574-16.3086 63.5254-0.927734 44.5801-0.927734ZM43.8965-27.4902C44.873-27.4902 45.5078-28.1738 45.5078-29.1016L45.5078-30.2246C45.5078-32.6172 46.6309-34.0332 49.6094-36.0352C53.5645-38.7207 55.3711-40.9668 55.3711-44.7754C55.3711-49.8535 50.7812-53.2715 44.7754-53.2715C38.7207-53.2715 34.8145-49.8535 34.1797-45.9473C34.082-45.459 33.9844-44.9707 33.9844-44.4336C33.9844-43.457 34.7168-42.8711 35.5469-42.8711C36.6699-42.8711 37.0117-43.5059 37.4512-44.4336C38.0371-47.7051 40.625-50.293 44.6289-50.293C49.0234-50.293 51.8066-47.9004 51.8066-44.5801C51.8066-41.9434 50.3906-40.332 46.7773-37.793C43.6523-35.6445 42.1875-33.6426 42.1875-30.4199L42.1875-29.1992C42.1875-28.125 42.8711-27.4902 43.8965-27.4902ZM43.7988-17.0898C45.459-17.0898 46.7773-18.4082 46.7773-20.0195C46.7773-21.6309 45.459-22.9492 43.7988-22.9492C42.1875-22.9492 40.8203-21.6309 40.8203-20.0195C40.8203-18.457 42.1875-17.0898 43.7988-17.0898Z"/>
  </g>
  <g id="Ultralight-S" transform="matrix(1 0 0 1 515.644 696)">
   <path d="M44.043 1.95312C64.502 1.95312 81.2988-14.7949 81.2988-35.2539C81.2988-55.7129 64.502-72.4609 44.043-72.4609C23.584-72.4609 6.83594-55.7129 6.83594-35.2539C6.83594-14.7949 23.584 1.95312 44.043 1.95312ZM44.043-0.244141C24.7559-0.244141 9.08203-15.9668 9.08203-35.2539C9.08203-54.541 24.7559-70.2637 44.043-70.2637C63.3789-70.2637 79.0527-54.541 79.0527-35.2539C79.0527-15.9668 63.3789-0.244141 44.043-0.244141ZM43.4082-27.5879C44.0918-27.5879 44.5312-28.0762 44.5312-28.7598L44.5312-30.127C44.5312-32.5684 45.5566-34.0332 48.6328-36.1328C52.6855-38.916 54.1992-41.1621 54.1992-44.6289C54.1992-49.2676 50.0488-52.6855 44.1895-52.6855C38.3301-52.6855 34.5703-49.1211 34.082-45.1172C34.0332-44.6777 33.9844-44.2383 33.9844-43.7012C33.9844-43.0176 34.4727-42.5781 35.1074-42.5781C35.8398-42.5781 36.2305-43.0176 36.3281-43.7012C36.6699-47.4609 39.502-50.5859 44.0918-50.5859C48.8281-50.5859 51.8066-47.998 51.8066-44.4824C51.8066-41.8457 50.5371-40.1367 46.7285-37.5C43.5059-35.2539 42.2852-33.3008 42.2852-30.2734L42.2852-28.7598C42.2852-28.0273 42.7246-27.5879 43.4082-27.5879ZM43.3594-17.5293C44.7754-17.5293 45.8984-18.75 45.8984-20.0684C45.8984-21.4355 44.7754-22.6074 43.3594-22.6074C41.9434-22.6074 40.8203-21.4355 40.8203-20.0684C40.8203-18.75 41.9434-17.5293 43.3594-17.5293Z"/>
  </g>
 </g>
</svg>
