<?xml version="1.0" encoding="UTF-8"?>
<!--Generator: Apple Native CoreSVG 149-->
<!DOCTYPE svg
PUBLIC "-//W3C//DTD SVG 1.1//EN"
       "http://www.w3.org/Graphics/SVG/1.1/DTD/svg11.dtd">
<svg version="1.1" xmlns="http://www.w3.org/2000/svg" xmlns:xlink="http://www.w3.org/1999/xlink" width="3300" height="2200">
 <!--glyph: "uni100297.medium", point size: 100.000000, font version: "Version 16.0d18e1", template writer version: "8"-->
 <g id="Notes">
  <rect height="2200" id="artboard" style="fill:white;opacity:1" width="3300" x="0" y="0"/>
  <line id="" style="fill:none;stroke:black;opacity:1;stroke-width:0.5;" x1="263" x2="3036" y1="292" y2="292"/>
  <text style="stroke:none;fill:black;font-family:-apple-system,&quot;SF Pro Display&quot;,&quot;SF Pro Text&quot;,Helvetica,sans-serif;font-weight:bold;" transform="matrix(1 0 0 1 263 322)">Weight/Scale Variations</text>
  <text style="stroke:none;fill:black;font-family:-apple-system,&quot;SF Pro Display&quot;,&quot;SF Pro Text&quot;,Helvetica,sans-serif;text-anchor:middle;" transform="matrix(1 0 0 1 559.711 322)">Ultralight</text>
  <text style="stroke:none;fill:black;font-family:-apple-system,&quot;SF Pro Display&quot;,&quot;SF Pro Text&quot;,Helvetica,sans-serif;text-anchor:middle;" transform="matrix(1 0 0 1 856.422 322)">Thin</text>
  <text style="stroke:none;fill:black;font-family:-apple-system,&quot;SF Pro Display&quot;,&quot;SF Pro Text&quot;,Helvetica,sans-serif;text-anchor:middle;" transform="matrix(1 0 0 1 1153.13 322)">Light</text>
  <text style="stroke:none;fill:black;font-family:-apple-system,&quot;SF Pro Display&quot;,&quot;SF Pro Text&quot;,Helvetica,sans-serif;text-anchor:middle;" transform="matrix(1 0 0 1 1449.84 322)">Regular</text>
  <text style="stroke:none;fill:black;font-family:-apple-system,&quot;SF Pro Display&quot;,&quot;SF Pro Text&quot;,Helvetica,sans-serif;text-anchor:middle;" transform="matrix(1 0 0 1 1746.56 322)">Medium</text>
  <text style="stroke:none;fill:black;font-family:-apple-system,&quot;SF Pro Display&quot;,&quot;SF Pro Text&quot;,Helvetica,sans-serif;text-anchor:middle;" transform="matrix(1 0 0 1 2043.27 322)">Semibold</text>
  <text style="stroke:none;fill:black;font-family:-apple-system,&quot;SF Pro Display&quot;,&quot;SF Pro Text&quot;,Helvetica,sans-serif;text-anchor:middle;" transform="matrix(1 0 0 1 2339.98 322)">Bold</text>
  <text style="stroke:none;fill:black;font-family:-apple-system,&quot;SF Pro Display&quot;,&quot;SF Pro Text&quot;,Helvetica,sans-serif;text-anchor:middle;" transform="matrix(1 0 0 1 2636.69 322)">Heavy</text>
  <text style="stroke:none;fill:black;font-family:-apple-system,&quot;SF Pro Display&quot;,&quot;SF Pro Text&quot;,Helvetica,sans-serif;text-anchor:middle;" transform="matrix(1 0 0 1 2933.4 322)">Black</text>
  <line id="" style="fill:none;stroke:black;opacity:1;stroke-width:0.5;" x1="263" x2="3036" y1="1903" y2="1903"/>
  <g id="" transform="matrix(1 0 0 1 263 1933)">
   <path d="M9.24805 0.830078C13.5547 0.830078 17.1387-2.74414 17.1387-7.05078C17.1387-11.3574 13.5449-14.9316 9.23828-14.9316C4.94141-14.9316 1.36719-11.3574 1.36719-7.05078C1.36719-2.74414 4.95117 0.830078 9.24805 0.830078ZM9.24805-0.654297C5.70312-0.654297 2.87109-3.49609 2.87109-7.05078C2.87109-10.6055 5.69336-13.4473 9.23828-13.4473C12.793-13.4473 15.6348-10.6055 15.6445-7.05078C15.6543-3.49609 12.8027-0.654297 9.24805-0.654297ZM6.39648-6.31836L8.50586-6.31836L8.50586-4.19922C8.50586-3.75977 8.79883-3.45703 9.22852-3.45703C9.67773-3.45703 9.9707-3.75977 9.9707-4.19922L9.9707-6.31836L12.0996-6.31836C12.5391-6.31836 12.8418-6.61133 12.8418-7.04102C12.8418-7.48047 12.5391-7.7832 12.0996-7.7832L9.9707-7.7832L9.9707-9.89258C9.9707-10.3418 9.67773-10.6445 9.22852-10.6445C8.79883-10.6445 8.50586-10.3418 8.50586-9.89258L8.50586-7.7832L6.39648-7.7832C5.94727-7.7832 5.64453-7.48047 5.64453-7.04102C5.64453-6.61133 5.94727-6.31836 6.39648-6.31836Z"/>
  </g>
  <g id="" transform="matrix(1 0 0 1 281.506 1933)">
   <path d="M11.709 2.91016C17.1582 2.91016 21.6699-1.61133 21.6699-7.05078C21.6699-12.5 17.1484-17.0117 11.6992-17.0117C6.25977-17.0117 1.74805-12.5 1.74805-7.05078C1.74805-1.61133 6.26953 2.91016 11.709 2.91016ZM11.709 1.25C7.09961 1.25 3.41797-2.44141 3.41797-7.05078C3.41797-11.6602 7.08984-15.3516 11.6992-15.3516C16.3086-15.3516 20-11.6602 20.0098-7.05078C20.0195-2.44141 16.3184 1.25 11.709 1.25ZM7.98828-6.23047L10.8789-6.23047L10.8789-3.32031C10.8789-2.83203 11.2109-2.5 11.6895-2.5C12.1777-2.5 12.5195-2.83203 12.5195-3.32031L12.5195-6.23047L15.4297-6.23047C15.918-6.23047 16.25-6.5625 16.25-7.04102C16.25-7.5293 15.918-7.87109 15.4297-7.87109L12.5195-7.87109L12.5195-10.7617C12.5195-11.2695 12.1777-11.6016 11.6895-11.6016C11.2109-11.6016 10.8789-11.2598 10.8789-10.7617L10.8789-7.87109L7.98828-7.87109C7.48047-7.87109 7.14844-7.5293 7.14844-7.04102C7.14844-6.5625 7.49023-6.23047 7.98828-6.23047Z"/>
  </g>
  <g id="" transform="matrix(1 0 0 1 304.924 1933)">
   <path d="M14.9707 5.66406C21.9336 5.66406 27.6953-0.0976562 27.6953-7.05078C27.6953-14.0137 21.9238-19.7754 14.9609-19.7754C8.00781-19.7754 2.25586-14.0137 2.25586-7.05078C2.25586-0.0976562 8.01758 5.66406 14.9707 5.66406ZM14.9707 3.84766C8.93555 3.84766 4.08203-1.01562 4.08203-7.05078C4.08203-13.0957 8.92578-17.9492 14.9609-17.9492C21.0059-17.9492 25.8594-13.0957 25.8691-7.05078C25.8789-1.01562 21.0156 3.84766 14.9707 3.84766ZM10.0586-6.14258L14.0625-6.14258L14.0625-2.12891C14.0625-1.5918 14.4336-1.2207 14.9512-1.2207C15.4883-1.2207 15.8594-1.5918 15.8594-2.12891L15.8594-6.14258L19.8828-6.14258C20.4102-6.14258 20.791-6.51367 20.791-7.03125C20.791-7.56836 20.4199-7.94922 19.8828-7.94922L15.8594-7.94922L15.8594-11.9531C15.8594-12.5098 15.4883-12.8809 14.9512-12.8809C14.4336-12.8809 14.0625-12.5 14.0625-11.9531L14.0625-7.94922L10.0586-7.94922C9.50195-7.94922 9.13086-7.56836 9.13086-7.03125C9.13086-6.51367 9.51172-6.14258 10.0586-6.14258Z"/>
  </g>
  <text style="stroke:none;fill:black;font-family:-apple-system,&quot;SF Pro Display&quot;,&quot;SF Pro Text&quot;,Helvetica,sans-serif;font-weight:bold;" transform="matrix(1 0 0 1 263 1953)">Design Variations</text>
  <text style="stroke:none;fill:black;font-family:-apple-system,&quot;SF Pro Display&quot;,&quot;SF Pro Text&quot;,Helvetica,sans-serif;" transform="matrix(1 0 0 1 263 1971)">Symbols are supported in up to nine weights and three scales.</text>
  <text style="stroke:none;fill:black;font-family:-apple-system,&quot;SF Pro Display&quot;,&quot;SF Pro Text&quot;,Helvetica,sans-serif;" transform="matrix(1 0 0 1 263 1989)">For optimal layout with text and other symbols, vertically align</text>
  <text style="stroke:none;fill:black;font-family:-apple-system,&quot;SF Pro Display&quot;,&quot;SF Pro Text&quot;,Helvetica,sans-serif;" transform="matrix(1 0 0 1 263 2007)">symbols with the adjacent text.</text>
  <line id="" style="fill:none;stroke:#00AEEF;stroke-width:0.5;opacity:1.0;" x1="776" x2="776" y1="1919" y2="1933"/>
  <g id="" transform="matrix(1 0 0 1 776 1933)">
   <path d="M3.31055 0.126953C3.82812 0.126953 4.08203-0.0683594 4.26758-0.605469L5.52734-4.0625L11.2891-4.0625L12.5488-0.605469C12.7344-0.0683594 12.9883 0.126953 13.4961 0.126953C14.0137 0.126953 14.3457-0.185547 14.3457-0.673828C14.3457-0.839844 14.3164-0.986328 14.2383-1.20117L9.6582-13.3887C9.43359-13.9941 9.0332-14.2871 8.4082-14.2871C7.80273-14.2871 7.39258-13.9941 7.17773-13.3984L2.59766-1.19141C2.51953-0.976562 2.49023-0.830078 2.49023-0.664062C2.49023-0.175781 2.80273 0.126953 3.31055 0.126953ZM6.00586-5.53711L8.37891-12.1094L8.42773-12.1094L10.8008-5.53711Z"/>
  </g>
  <line id="" style="fill:none;stroke:#00AEEF;stroke-width:0.5;opacity:1.0;" x1="792.836" x2="792.836" y1="1919" y2="1933"/>
  <text style="stroke:none;fill:black;font-family:-apple-system,&quot;SF Pro Display&quot;,&quot;SF Pro Text&quot;,Helvetica,sans-serif;font-weight:bold;" transform="matrix(1 0 0 1 776 1953)">Margins</text>
  <text style="stroke:none;fill:black;font-family:-apple-system,&quot;SF Pro Display&quot;,&quot;SF Pro Text&quot;,Helvetica,sans-serif;" transform="matrix(1 0 0 1 776 1971)">Leading and trailing margins on the left and right side of each symbol</text>
  <text style="stroke:none;fill:black;font-family:-apple-system,&quot;SF Pro Display&quot;,&quot;SF Pro Text&quot;,Helvetica,sans-serif;" transform="matrix(1 0 0 1 776 1989)">can be adjusted by modifying the x-location of the margin guidelines.</text>
  <text style="stroke:none;fill:black;font-family:-apple-system,&quot;SF Pro Display&quot;,&quot;SF Pro Text&quot;,Helvetica,sans-serif;" transform="matrix(1 0 0 1 776 2007)">Modifications are automatically applied proportionally to all</text>
  <text style="stroke:none;fill:black;font-family:-apple-system,&quot;SF Pro Display&quot;,&quot;SF Pro Text&quot;,Helvetica,sans-serif;" transform="matrix(1 0 0 1 776 2025)">scales and weights.</text>
  <g id="" transform="matrix(1 0 0 1 1289 1933)">
   <path d="M2.8418 1.86523L4.54102 3.57422C5.40039 4.44336 6.38672 4.38477 7.31445 3.35938L17.4902-7.85156C17.7539-7.76367 18.0273-7.7832 18.3398-7.8418L19.4043-8.03711L20.0684-7.36328L20.0293-6.80664C19.9902-6.30859 20.1172-5.92773 20.6055-5.44922L21.3672-4.70703C21.8457-4.22852 22.4609-4.19922 22.9297-4.66797L25.8398-7.58789C26.3086-8.05664 26.2891-8.65234 25.8105-9.13086L25.0391-9.89258C24.5605-10.3711 24.1895-10.5273 23.7109-10.4883L23.1348-10.4395L22.4902-11.0742L22.7344-12.1973C22.8613-12.7637 22.7051-13.2031 22.1191-13.7891L19.9219-15.9766C16.582-19.2969 12.1484-19.2188 9.25781-16.3281C8.83789-15.918 8.80859-15.3418 9.04297-14.9512C9.27734-14.5898 9.73633-14.3555 10.3809-14.5215C11.8457-14.8633 13.3691-14.9219 14.7949-13.9844L14.209-12.5293C14.0137-12.0508 13.9844-11.6504 14.1113-11.2891L3.04688-0.898438C2.06055 0.0195312 1.98242 0.996094 2.8418 1.86523ZM10.752-15.957C13.1836-17.7344 16.4746-17.4316 18.7012-15.2051L21.1328-12.793C21.3672-12.5586 21.4062-12.373 21.3379-12.0312L21.0156-10.5469L22.5195-9.0625L23.5059-9.12109C23.7598-9.13086 23.8379-9.11133 24.0332-8.91602L24.6094-8.33984L22.168-5.89844L21.5918-6.47461C21.3965-6.66992 21.3672-6.74805 21.377-7.01172L21.4453-7.98828L19.9512-9.47266L18.4277-9.21875C18.1055-9.15039 17.959-9.17969 17.7148-9.41406L15.7129-11.416C15.459-11.6504 15.4297-11.8164 15.5859-12.1875L16.4648-14.2773C14.9023-15.7324 12.8711-16.3574 10.8398-15.7617C10.6836-15.7227 10.625-15.8496 10.752-15.957ZM5.27344 2.30469L4.10156 1.14258C3.63281 0.683594 3.74023 0.341797 4.14062-0.0195312L14.9512-10.1953L16.416-8.71094L6.42578 2.27539C6.07422 2.67578 5.74219 2.77344 5.27344 2.30469Z"/>
  </g>
  <text style="stroke:none;fill:black;font-family:-apple-system,&quot;SF Pro Display&quot;,&quot;SF Pro Text&quot;,Helvetica,sans-serif;font-weight:bold;" transform="matrix(1 0 0 1 1289 1953)">Exporting</text>
  <text style="stroke:none;fill:black;font-family:-apple-system,&quot;SF Pro Display&quot;,&quot;SF Pro Text&quot;,Helvetica,sans-serif;" transform="matrix(1 0 0 1 1289 1971)">Symbols should be outlined when exporting to ensure the</text>
  <text style="stroke:none;fill:black;font-family:-apple-system,&quot;SF Pro Display&quot;,&quot;SF Pro Text&quot;,Helvetica,sans-serif;" transform="matrix(1 0 0 1 1289 1989)">design is preserved when submitting to Xcode.</text>
  <text id="template-version" style="stroke:none;fill:black;font-family:-apple-system,&quot;SF Pro Display&quot;,&quot;SF Pro Text&quot;,Helvetica,sans-serif;text-anchor:end;" transform="matrix(1 0 0 1 3036 1933)">Template v.2.0</text>
  <text style="stroke:none;fill:black;font-family:-apple-system,&quot;SF Pro Display&quot;,&quot;SF Pro Text&quot;,Helvetica,sans-serif;text-anchor:end;" transform="matrix(1 0 0 1 3036 1951)">Requires Xcode 12 or greater</text>
  <text style="stroke:none;fill:black;font-family:-apple-system,&quot;SF Pro Display&quot;,&quot;SF Pro Text&quot;,Helvetica,sans-serif;text-anchor:end;" transform="matrix(1 0 0 1 3036 1969)">Generated from pause.circle</text>
  <text style="stroke:none;fill:black;font-family:-apple-system,&quot;SF Pro Display&quot;,&quot;SF Pro Text&quot;,Helvetica,sans-serif;text-anchor:end;" transform="matrix(1 0 0 1 3036 1987)">Typeset at 100 points</text>
  <text style="stroke:none;fill:black;font-family:-apple-system,&quot;SF Pro Display&quot;,&quot;SF Pro Text&quot;,Helvetica,sans-serif;" transform="matrix(1 0 0 1 263 726)">Small</text>
  <text style="stroke:none;fill:black;font-family:-apple-system,&quot;SF Pro Display&quot;,&quot;SF Pro Text&quot;,Helvetica,sans-serif;" transform="matrix(1 0 0 1 263 1156)">Medium</text>
  <text style="stroke:none;fill:black;font-family:-apple-system,&quot;SF Pro Display&quot;,&quot;SF Pro Text&quot;,Helvetica,sans-serif;" transform="matrix(1 0 0 1 263 1586)">Large</text>
 </g>
 <g id="Guides">
  <g id="H-reference" style="fill:#27AAE1;stroke:none;" transform="matrix(1 0 0 1 339 696)">
   <path d="M0.976562 0L3.66211 0L12.9883-24.4629L45.752-24.4629L55.127 0L57.7637 0L30.6152-70.459L28.125-70.459ZM29.3457-67.1387L29.4434-67.1387L44.873-26.709L13.8672-26.709Z"/>
  </g>
  <line id="Baseline-S" style="fill:none;stroke:#27AAE1;opacity:1;stroke-width:0.5;" x1="263" x2="3036" y1="696" y2="696"/>
  <line id="Capline-S" style="fill:none;stroke:#27AAE1;opacity:1;stroke-width:0.5;" x1="263" x2="3036" y1="625.541" y2="625.541"/>
  <g id="H-reference" style="fill:#27AAE1;stroke:none;" transform="matrix(1 0 0 1 339 1126)">
   <path d="M0.976562 0L3.66211 0L12.9883-24.4629L45.752-24.4629L55.127 0L57.7637 0L30.6152-70.459L28.125-70.459ZM29.3457-67.1387L29.4434-67.1387L44.873-26.709L13.8672-26.709Z"/>
  </g>
  <line id="Baseline-M" style="fill:none;stroke:#27AAE1;opacity:1;stroke-width:0.5;" x1="263" x2="3036" y1="1126" y2="1126"/>
  <line id="Capline-M" style="fill:none;stroke:#27AAE1;opacity:1;stroke-width:0.5;" x1="263" x2="3036" y1="1055.54" y2="1055.54"/>
  <g id="H-reference" style="fill:#27AAE1;stroke:none;" transform="matrix(1 0 0 1 339 1556)">
   <path d="M0.976562 0L3.66211 0L12.9883-24.4629L45.752-24.4629L55.127 0L57.7637 0L30.6152-70.459L28.125-70.459ZM29.3457-67.1387L29.4434-67.1387L44.873-26.709L13.8672-26.709Z"/>
  </g>
  <line id="Baseline-L" style="fill:none;stroke:#27AAE1;opacity:1;stroke-width:0.5;" x1="263" x2="3036" y1="1556" y2="1556"/>
  <line id="Capline-L" style="fill:none;stroke:#27AAE1;opacity:1;stroke-width:0.5;" x1="263" x2="3036" y1="1485.54" y2="1485.54"/>
  <line id="left-margin" style="fill:none;stroke:#00AEEF;stroke-width:0.5;opacity:1.0;" x1="1391.3" x2="1391.3" y1="1030.79" y2="1150.12"/>
  <line id="right-margin" style="fill:none;stroke:#00AEEF;stroke-width:0.5;opacity:1.0;" x1="1508.39" x2="1508.39" y1="1030.79" y2="1150.12"/>
 </g>
 <g id="Symbols">
  <g id="Black-L" transform="matrix(1 0 0 1 2854.05 1556)">
   <path d="M79.3457 32.8613C116.748 32.8613 147.412 2.19727 147.412-35.2051C147.412-72.6074 116.748-103.271 79.2969-103.271C41.8945-103.271 11.2793-72.6074 11.2793-35.2051C11.2793 2.19727 41.9434 32.8613 79.3457 32.8613ZM79.3457 12.4023C52.9785 12.4023 31.7383-8.83789 31.7383-35.2051C31.7383-61.5723 52.9297-82.8125 79.2969-82.8125C105.664-82.8125 126.953-61.5723 126.953-35.2051C127.002-8.83789 105.713 12.4023 79.3457 12.4023ZM60.6934-9.66797L68.4082-9.66797C71.9727-9.66797 73.9746-11.7676 73.9746-15.0391L73.9746-55.3223C73.9746-58.5938 71.9727-60.7422 68.4082-60.7422L60.6934-60.7422C57.1289-60.7422 55.127-58.5938 55.127-55.3223L55.127-15.0391C55.127-11.7676 57.1289-9.66797 60.6934-9.66797ZM90.2832-9.66797L97.9492-9.66797C101.514-9.66797 103.516-11.7676 103.516-15.0391L103.516-55.3223C103.516-58.5938 101.514-60.7422 97.9492-60.7422L90.2832-60.7422C86.6699-60.7422 84.668-58.5938 84.668-55.3223L84.668-15.0391C84.668-11.7676 86.6699-9.66797 90.2832-9.66797Z"/>
  </g>
  <g id="Heavy-L" transform="matrix(1 0 0 1 2558.39 1556)">
   <path d="M78.2715 31.7871C115.088 31.7871 145.312 1.5625 145.312-35.2051C145.312-72.0215 115.039-102.246 78.2715-102.246C41.4551-102.246 11.2793-72.0215 11.2793-35.2051C11.2793 1.5625 41.5039 31.7871 78.2715 31.7871ZM78.2715 14.0137C51.0254 14.0137 29.0527-7.95898 29.0527-35.2051C29.0527-62.5 50.9766-84.4727 78.2715-84.4727C105.518-84.4727 127.49-62.5 127.539-35.2051C127.539-7.95898 105.566 14.0137 78.2715 14.0137ZM59.9121-9.96094L67.2363-9.96094C70.7031-9.96094 72.5098-11.9629 72.5098-14.9902L72.5098-55.4199C72.5098-58.4473 70.7031-60.4492 67.2363-60.4492L59.9121-60.4492C56.4453-60.4492 54.5898-58.4473 54.5898-55.4199L54.5898-14.9902C54.5898-11.9629 56.4453-9.96094 59.9121-9.96094ZM89.3066-9.96094L96.6797-9.96094C100.049-9.96094 101.904-11.9629 101.904-14.9902L101.904-55.4199C101.904-58.4473 100.049-60.4492 96.6797-60.4492L89.3066-60.4492C85.8887-60.4492 83.9844-58.4473 83.9844-55.4199L83.9844-14.9902C83.9844-11.9629 85.8887-9.96094 89.3066-9.96094Z"/>
  </g>
  <g id="Bold-L" transform="matrix(1 0 0 1 2262.88 1556)">
   <path d="M77.0996 30.5664C113.232 30.5664 142.92 0.878906 142.92-35.2539C142.92-71.3379 113.184-101.074 77.0508-101.074C40.9668-101.074 11.2793-71.3379 11.2793-35.2539C11.2793 0.878906 41.0156 30.5664 77.0996 30.5664ZM77.0996 15.8203C48.8281 15.8203 26.0742-6.98242 26.0742-35.2539C26.0742-63.5254 48.7793-86.2793 77.0508-86.2793C105.371-86.2793 128.125-63.5254 128.174-35.2539C128.174-6.98242 105.371 15.8203 77.0996 15.8203ZM58.9844-10.2539L65.918-10.2539C69.2383-10.2539 70.8984-12.1582 70.8984-14.9414L70.8984-55.4688C70.8984-58.3008 69.2383-60.1562 65.918-60.1562L58.9844-60.1562C55.7129-60.1562 54.0039-58.3008 54.0039-55.4688L54.0039-14.9414C54.0039-12.1582 55.7129-10.2539 58.9844-10.2539ZM88.2324-10.2539L95.2148-10.2539C98.4375-10.2539 100.146-12.1582 100.146-14.9414L100.146-55.4688C100.146-58.3008 98.4375-60.1562 95.2148-60.1562L88.2324-60.1562C84.9609-60.1562 83.252-58.3008 83.252-55.4688L83.252-14.9414C83.252-12.1582 84.9609-10.2539 88.2324-10.2539Z"/>
  </g>
  <g id="Semibold-L" transform="matrix(1 0 0 1 1966.97 1556)">
   <path d="M76.2695 29.7363C111.914 29.7363 141.309 0.390625 141.309-35.2539C141.309-70.8984 111.865-100.244 76.2695-100.244C40.625-100.244 11.2793-70.8984 11.2793-35.2539C11.2793 0.390625 40.6738 29.7363 76.2695 29.7363ZM76.2695 17.041C47.3145 17.041 24.0234-6.25 24.0234-35.2539C24.0234-64.209 47.2656-87.5488 76.2695-87.5488C105.225-87.5488 128.564-64.209 128.613-35.2539C128.662-6.25 105.273 17.041 76.2695 17.041ZM58.3496-10.498L65.0391-10.498C68.2129-10.498 69.7754-12.2559 69.7754-14.9414L69.7754-55.5176C69.7754-58.2031 68.2129-59.9609 65.0391-59.9609L58.3496-59.9609C55.1758-59.9609 53.6133-58.2031 53.6133-55.5176L53.6133-14.9414C53.6133-12.2559 55.1758-10.498 58.3496-10.498ZM87.5-10.498L94.1895-10.498C97.3145-10.498 98.9258-12.2559 98.9258-14.9414L98.9258-55.5176C98.9258-58.2031 97.3145-59.9609 94.1895-59.9609L87.5-59.9609C84.375-59.9609 82.7637-58.2031 82.7637-55.5176L82.7637-14.9414C82.7637-12.2559 84.375-10.498 87.5-10.498Z"/>
  </g>
  <g id="Medium-L" transform="matrix(1 0 0 1 1670.87 1556)">
   <path d="M75.6836 29.1504C110.938 29.1504 140.088 0 140.088-35.2539C140.088-70.5078 110.889-99.6582 75.6348-99.6582C40.3809-99.6582 11.2793-70.5078 11.2793-35.2539C11.2793 0 40.3809 29.1504 75.6836 29.1504ZM75.6836 18.0176C46.1426 18.0176 22.4609-5.76172 22.4609-35.2539C22.4609-64.7461 46.1426-88.5254 75.6348-88.5254C105.127-88.5254 128.906-64.7461 128.906-35.2539C128.955-5.76172 105.176 18.0176 75.6836 18.0176ZM57.8613-10.6445L64.3555-10.6445C67.4316-10.6445 68.9453-12.3535 68.9453-14.8926L68.9453-55.5664C68.9453-58.1055 67.4316-59.8145 64.3555-59.8145L57.8613-59.8145C54.7852-59.8145 53.2715-58.1055 53.2715-55.5664L53.2715-14.8926C53.2715-12.3535 54.7852-10.6445 57.8613-10.6445ZM86.9629-10.6445L93.457-10.6445C96.4844-10.6445 97.998-12.3535 97.998-14.8926L97.998-55.5664C97.998-58.1055 96.4844-59.8145 93.457-59.8145L86.9629-59.8145C83.8867-59.8145 82.373-58.1055 82.373-55.5664L82.373-14.8926C82.373-12.3535 83.8867-10.6445 86.9629-10.6445Z"/>
  </g>
  <g id="Regular-L" transform="matrix(1 0 0 1 1374.97 1556)">
   <path d="M74.8535 28.3203C109.668 28.3203 138.477-0.488281 138.477-35.2539C138.477-70.0684 109.619-98.877 74.8047-98.877C40.0391-98.877 11.2793-70.0684 11.2793-35.2539C11.2793-0.488281 40.0879 28.3203 74.8535 28.3203ZM74.8535 19.2383C44.6777 19.2383 20.4102-5.07812 20.4102-35.2539C20.4102-65.4785 44.6289-89.7461 74.8047-89.7461C105.029-89.7461 129.297-65.4785 129.346-35.2539C129.395-5.07812 105.078 19.2383 74.8535 19.2383ZM57.2266-10.8887L63.4766-10.8887C66.4551-10.8887 67.8223-12.5 67.8223-14.8438L67.8223-55.6641C67.8223-58.0078 66.4551-59.6191 63.4766-59.6191L57.2266-59.6191C54.2969-59.6191 52.8809-58.0078 52.8809-55.6641L52.8809-14.8438C52.8809-12.5 54.2969-10.8887 57.2266-10.8887ZM86.2305-10.8887L92.4805-10.8887C95.3613-10.8887 96.7773-12.5 96.7773-14.8438L96.7773-55.6641C96.7773-58.0078 95.3613-59.6191 92.4805-59.6191L86.2305-59.6191C83.252-59.6191 81.8359-58.0078 81.8359-55.6641L81.8359-14.8438C81.8359-12.5 83.252-10.8887 86.2305-10.8887Z"/>
  </g>
  <g id="Light-L" transform="matrix(1 0 0 1 1079.18 1556)">
   <path d="M73.9258 27.3926C108.301 27.3926 136.621-0.927734 136.621-35.2539C136.621-69.6289 108.252-97.9492 73.9258-97.9492C39.5508-97.9492 11.2793-69.6289 11.2793-35.2539C11.2793-0.927734 39.5996 27.3926 73.9258 27.3926ZM73.9258 20.5078C43.1152 20.5078 18.2129-4.44336 18.2129-35.2539C18.2129-66.1133 43.0664-91.0156 73.9258-91.0156C104.736-91.0156 129.688-66.1133 129.736-35.2539C129.736-4.44336 104.785 20.5078 73.9258 20.5078ZM56.5918-11.1816L62.8906-11.1816C65.7227-11.1816 66.9922-12.6953 66.9922-14.8926L66.9922-55.5176C66.9922-57.7148 65.7227-59.2773 62.8906-59.2773L56.5918-59.2773C53.8574-59.2773 52.4902-57.7148 52.4902-55.5176L52.4902-14.8926C52.4902-12.6953 53.8574-11.1816 56.5918-11.1816ZM84.9121-11.1816L91.2598-11.1816C93.9453-11.1816 95.3125-12.6953 95.3125-14.8926L95.3125-55.5176C95.3125-57.7148 93.9453-59.2773 91.2598-59.2773L84.9121-59.2773C82.1777-59.2773 80.8594-57.7148 80.8594-55.5176L80.8594-14.8926C80.8594-12.6953 82.1777-11.1816 84.9121-11.1816Z"/>
  </g>
  <g id="Thin-L" transform="matrix(1 0 0 1 783.693 1556)">
   <path d="M72.7051 26.1719C106.494 26.1719 134.18-1.51367 134.18-35.2539C134.18-69.043 106.494-96.7285 72.7051-96.7285C38.9648-96.7285 11.2793-69.043 11.2793-35.2539C11.2793-1.51367 38.9648 26.1719 72.7051 26.1719ZM72.7051 22.168C41.0156 22.168 15.2832-3.56445 15.2832-35.2539C15.2832-66.9922 41.0156-92.7246 72.7051-92.7246C104.395-92.7246 130.176-66.9922 130.176-35.2539C130.176-3.56445 104.443 22.168 72.7051 22.168ZM55.7129-11.5234L62.1582-11.5234C64.6973-11.5234 65.8691-12.9395 65.8691-14.9902L65.8691-55.3223C65.8691-57.373 64.6973-58.7891 62.1582-58.7891L55.7129-58.7891C53.2715-58.7891 52.002-57.373 52.002-55.3223L52.002-14.9902C52.002-12.9395 53.2715-11.5234 55.7129-11.5234ZM83.2031-11.5234L89.6484-11.5234C92.0898-11.5234 93.3594-12.9395 93.3594-14.9902L93.3594-55.3223C93.3594-57.373 92.0898-58.7891 89.6484-58.7891L83.2031-58.7891C80.7129-58.7891 79.5898-57.373 79.5898-55.3223L79.5898-14.9902C79.5898-12.9395 80.7129-11.5234 83.2031-11.5234Z"/>
  </g>
  <g id="Ultralight-L" transform="matrix(1 0 0 1 487.616 1556)">
   <path d="M72.1191 25.5371C105.566 25.5371 132.91-1.80664 132.91-35.2539C132.91-68.75 105.566-96.0938 72.1191-96.0938C38.623-96.0938 11.2793-68.75 11.2793-35.2539C11.2793-1.80664 38.623 25.5371 72.1191 25.5371ZM72.1191 23.0469C39.9414 23.0469 13.7695-3.125 13.7695-35.2539C13.7695-67.4316 39.9414-93.6035 72.1191-93.6035C104.248-93.6035 130.42-67.4316 130.42-35.2539C130.42-3.125 104.248 23.0469 72.1191 23.0469ZM55.2734-11.7188L61.7676-11.7188C64.1602-11.7188 65.2832-13.0371 65.2832-15.0391L65.2832-55.2734C65.2832-57.2266 64.1602-58.5449 61.7676-58.5449L55.2734-58.5449C52.9297-58.5449 51.7578-57.2266 51.7578-55.2734L51.7578-15.0391C51.7578-13.0371 52.9297-11.7188 55.2734-11.7188ZM82.3242-11.7188L88.8184-11.7188C91.1621-11.7188 92.334-13.0371 92.334-15.0391L92.334-55.2734C92.334-57.2266 91.1621-58.5449 88.8184-58.5449L82.3242-58.5449C79.9805-58.5449 78.9062-57.2266 78.9062-55.2734L78.9062-15.0391C78.9062-13.0371 79.9805-11.7188 82.3242-11.7188Z"/>
  </g>
  <g id="Black-M" transform="matrix(1 0 0 1 2870.97 1126)">
   <path d="M62.4023 18.457C91.9922 18.457 116.113-5.61523 116.113-35.2051C116.113-64.7949 91.9922-88.8672 62.4023-88.8672C32.8125-88.8672 8.74023-64.7949 8.74023-35.2051C8.74023-5.61523 32.8125 18.457 62.4023 18.457ZM62.4023 0.195312C42.8711 0.195312 27.002-15.625 27.002-35.2051C27.002-54.7363 42.8711-70.6055 62.4023-70.6055C81.9824-70.6055 97.8027-54.7363 97.8027-35.2051C97.8027-15.625 81.9824 0.195312 62.4023 0.195312ZM47.8027-15.1855L54.2969-15.1855C57.1777-15.1855 58.8379-16.9434 58.8379-19.6777L58.8379-50.6348C58.8379-53.418 57.1777-55.1758 54.2969-55.1758L47.8027-55.1758C44.9219-55.1758 43.2617-53.418 43.2617-50.6348L43.2617-19.6777C43.2617-16.9434 44.9219-15.1855 47.8027-15.1855ZM70.5566-15.1855L77.002-15.1855C79.8828-15.1855 81.5918-16.9434 81.5918-19.6777L81.5918-50.6348C81.5918-53.418 79.8828-55.1758 77.002-55.1758L70.5566-55.1758C67.6758-55.1758 65.9668-53.418 65.9668-50.6348L65.9668-19.6777C65.9668-16.9434 67.6758-15.1855 70.5566-15.1855Z"/>
  </g>
  <g id="Heavy-M" transform="matrix(1 0 0 1 2575.19 1126)">
   <path d="M61.5234 17.5293C90.5273 17.5293 114.258-6.20117 114.258-35.2051C114.258-64.2578 90.5273-87.9883 61.4746-87.9883C32.4707-87.9883 8.74023-64.2578 8.74023-35.2051C8.74023-6.20117 32.4707 17.5293 61.5234 17.5293ZM61.5234 1.61133C41.1133 1.61133 24.6582-14.8438 24.6582-35.2051C24.6582-55.6152 41.1133-72.0703 61.4746-72.0703C81.8848-72.0703 98.3398-55.6152 98.3398-35.2051C98.3398-14.8438 81.8848 1.61133 61.5234 1.61133ZM47.0703-15.4297L53.1738-15.4297C55.9082-15.4297 57.4707-17.041 57.4707-19.6289L57.4707-50.7324C57.4707-53.3203 55.9082-54.9805 53.1738-54.9805L47.0703-54.9805C44.3359-54.9805 42.7734-53.3203 42.7734-50.7324L42.7734-19.6289C42.7734-17.041 44.3359-15.4297 47.0703-15.4297ZM69.873-15.4297L75.9277-15.4297C78.6621-15.4297 80.2246-17.041 80.2246-19.6289L80.2246-50.7324C80.2246-53.3203 78.6621-54.9805 75.9277-54.9805L69.873-54.9805C67.0898-54.9805 65.5273-53.3203 65.5273-50.7324L65.5273-19.6289C65.5273-17.041 67.0898-15.4297 69.873-15.4297Z"/>
  </g>
  <g id="Bold-M" transform="matrix(1 0 0 1 2279.5 1126)">
   <path d="M60.498 16.5039C88.8672 16.5039 112.207-6.83594 112.207-35.2051C112.207-63.623 88.8672-86.9629 60.4492-86.9629C32.0312-86.9629 8.74023-63.623 8.74023-35.2051C8.74023-6.83594 32.0801 16.5039 60.498 16.5039ZM60.498 3.22266C39.1602 3.22266 22.0703-13.916 22.0703-35.2051C22.0703-56.543 39.1602-73.6816 60.4492-73.6816C81.7383-73.6816 98.9258-56.543 98.9258-35.2051C98.9746-13.916 81.7871 3.22266 60.498 3.22266ZM46.2891-15.6738L51.9043-15.6738C54.541-15.6738 55.957-17.2363 55.957-19.5312L55.957-50.8789C55.957-53.2227 54.541-54.7363 51.9043-54.7363L46.2891-54.7363C43.6523-54.7363 42.2363-53.2227 42.2363-50.8789L42.2363-19.5312C42.2363-17.2363 43.6523-15.6738 46.2891-15.6738ZM69.043-15.6738L74.707-15.6738C77.2949-15.6738 78.7109-17.2363 78.7109-19.5312L78.7109-50.8789C78.7109-53.2227 77.2949-54.7363 74.707-54.7363L69.043-54.7363C66.4062-54.7363 64.9902-53.2227 64.9902-50.8789L64.9902-19.5312C64.9902-17.2363 66.4062-15.6738 69.043-15.6738Z"/>
  </g>
  <g id="Semibold-M" transform="matrix(1 0 0 1 1983.5 1126)">
   <path d="M59.7656 15.8203C87.7441 15.8203 110.791-7.27539 110.791-35.2539C110.791-63.2324 87.6953-86.2793 59.7656-86.2793C31.7871-86.2793 8.74023-63.2324 8.74023-35.2539C8.74023-7.27539 31.7871 15.8203 59.7656 15.8203ZM59.7656 4.3457C37.8418 4.3457 20.2637-13.3301 20.2637-35.2539C20.2637-57.1777 37.793-74.8047 59.7656-74.8047C81.6895-74.8047 99.3164-57.1777 99.3652-35.2539C99.3652-13.3301 81.6895 4.3457 59.7656 4.3457ZM45.7031-15.8691L51.0254-15.8691C53.6133-15.8691 54.8828-17.334 54.8828-19.4824L54.8828-50.9766C54.8828-53.125 53.6133-54.5898 51.0254-54.5898L45.7031-54.5898C43.1641-54.5898 41.8457-53.125 41.8457-50.9766L41.8457-19.4824C41.8457-17.334 43.1641-15.8691 45.7031-15.8691ZM68.5059-15.8691L73.8281-15.8691C76.3672-15.8691 77.6855-17.334 77.6855-19.4824L77.6855-50.9766C77.6855-53.125 76.3672-54.5898 73.8281-54.5898L68.5059-54.5898C65.9668-54.5898 64.6484-53.125 64.6484-50.9766L64.6484-19.4824C64.6484-17.334 65.9668-15.8691 68.5059-15.8691Z"/>
  </g>
  <g id="Medium-M" transform="matrix(1 0 0 1 1687.3 1126)">
   <path d="M59.2285 15.2344C86.9141 15.2344 109.766-7.61719 109.766-35.2539C109.766-62.8906 86.8652-85.7422 59.1797-85.7422C31.543-85.7422 8.74023-62.8906 8.74023-35.2539C8.74023-7.61719 31.5918 15.2344 59.2285 15.2344ZM59.2285 5.17578C36.8164 5.17578 18.8965-12.8418 18.8965-35.2539C18.8965-57.666 36.8164-75.6348 59.1797-75.6348C81.5918-75.6348 99.6094-57.666 99.6582-35.2539C99.707-12.8418 81.6406 5.17578 59.2285 5.17578ZM45.2637-16.0156L50.3906-16.0156C52.8809-16.0156 54.1016-17.3828 54.1016-19.4824L54.1016-51.0254C54.1016-53.0762 52.8809-54.4922 50.3906-54.4922L45.2637-54.4922C42.7734-54.4922 41.5527-53.0762 41.5527-51.0254L41.5527-19.4824C41.5527-17.3828 42.7734-16.0156 45.2637-16.0156ZM68.1152-16.0156L73.1934-16.0156C75.6348-16.0156 76.8555-17.3828 76.8555-19.4824L76.8555-51.0254C76.8555-53.0762 75.6348-54.4922 73.1934-54.4922L68.1152-54.4922C65.625-54.4922 64.3555-53.0762 64.3555-51.0254L64.3555-19.4824C64.3555-17.3828 65.625-16.0156 68.1152-16.0156Z"/>
  </g>
  <g id="Regular-M" transform="matrix(1 0 0 1 1391.3 1126)">
   <path d="M58.5449 14.5508C85.791 14.5508 108.35-8.05664 108.35-35.2539C108.35-62.5 85.7422-85.0586 58.4961-85.0586C31.2988-85.0586 8.74023-62.5 8.74023-35.2539C8.74023-8.05664 31.3477 14.5508 58.5449 14.5508ZM58.5449 6.25C35.498 6.25 17.0898-12.207 17.0898-35.2539C17.0898-58.3008 35.4492-76.7578 58.4961-76.7578C81.543-76.7578 100-58.3008 100.049-35.2539C100.098-12.207 81.5918 6.25 58.5449 6.25ZM44.7266-16.2109L49.5117-16.2109C51.9531-16.2109 53.0762-17.5293 53.0762-19.3848L53.0762-51.123C53.0762-53.0273 51.9531-54.3457 49.5117-54.3457L44.7266-54.3457C42.334-54.3457 41.2109-53.0273 41.2109-51.123L41.2109-19.3848C41.2109-17.5293 42.334-16.2109 44.7266-16.2109ZM67.5781-16.2109L72.3633-16.2109C74.707-16.2109 75.8301-17.5293 75.8301-19.3848L75.8301-51.123C75.8301-53.0273 74.707-54.3457 72.3633-54.3457L67.5781-54.3457C65.1367-54.3457 64.0137-53.0273 64.0137-51.123L64.0137-19.3848C64.0137-17.5293 65.1367-16.2109 67.5781-16.2109Z"/>
  </g>
  <g id="Light-M" transform="matrix(1 0 0 1 1095.42 1126)">
   <path d="M57.7148 13.7207C84.5215 13.7207 106.689-8.44727 106.689-35.2539C106.689-62.1094 84.5215-84.2285 57.666-84.2285C30.8594-84.2285 8.74023-62.1094 8.74023-35.2539C8.74023-8.44727 30.9082 13.7207 57.7148 13.7207ZM57.7148 7.37305C34.082 7.37305 15.0879-11.6699 15.0879-35.2539C15.0879-58.8867 34.082-77.9297 57.666-77.9297C81.2988-77.9297 100.342-58.8867 100.391-35.2539C100.391-11.6699 81.3477 7.37305 57.7148 7.37305ZM44.1406-16.4551L49.0234-16.4551C51.2695-16.4551 52.2949-17.6758 52.2949-19.4824L52.2949-51.0254C52.2949-52.7832 51.2695-54.0039 49.0234-54.0039L44.1406-54.0039C41.9434-54.0039 40.8691-52.7832 40.8691-51.0254L40.8691-19.4824C40.8691-17.6758 41.9434-16.4551 44.1406-16.4551ZM66.4062-16.4551L71.2402-16.4551C73.4375-16.4551 74.5117-17.6758 74.5117-19.4824L74.5117-51.0254C74.5117-52.7832 73.4375-54.0039 71.2402-54.0039L66.4062-54.0039C64.1602-54.0039 63.1348-52.7832 63.1348-51.0254L63.1348-19.4824C63.1348-17.6758 64.1602-16.4551 66.4062-16.4551Z"/>
  </g>
  <g id="Thin-M" transform="matrix(1 0 0 1 799.806 1126)">
   <path d="M56.6406 12.5977C82.9102 12.5977 104.492-8.98438 104.492-35.2539C104.492-61.5723 82.9102-83.1543 56.5918-83.1543C30.3223-83.1543 8.74023-61.5723 8.74023-35.2539C8.74023-8.98438 30.3223 12.5977 56.6406 12.5977ZM56.6406 8.88672C32.2266 8.88672 12.4512-10.8887 12.4512-35.2539C12.4512-59.6191 32.2266-79.4434 56.5918-79.4434C81.0059-79.4434 100.781-59.6191 100.781-35.2539C100.781-10.8887 81.0059 8.88672 56.6406 8.88672ZM43.3594-16.7969L48.3398-16.7969C50.3418-16.7969 51.2695-17.8711 51.2695-19.5312L51.2695-50.8301C51.2695-52.4902 50.3418-53.6133 48.3398-53.6133L43.3594-53.6133C41.4062-53.6133 40.4297-52.4902 40.4297-50.8301L40.4297-19.5312C40.4297-17.8711 41.4062-16.7969 43.3594-16.7969ZM64.8926-16.7969L69.8242-16.7969C71.7773-16.7969 72.7539-17.8711 72.7539-19.5312L72.7539-50.8301C72.7539-52.4902 71.7773-53.6133 69.8242-53.6133L64.8926-53.6133C62.8906-53.6133 61.9629-52.4902 61.9629-50.8301L61.9629-19.5312C61.9629-17.8711 62.8906-16.7969 64.8926-16.7969Z"/>
  </g>
  <g id="Ultralight-M" transform="matrix(1 0 0 1 503.656 1126)">
   <path d="M56.0547 12.0605C82.0801 12.0605 103.369-9.22852 103.369-35.2539C103.369-61.2793 82.0801-82.5684 56.0547-82.5684C30.0293-82.5684 8.74023-61.2793 8.74023-35.2539C8.74023-9.22852 30.0293 12.0605 56.0547 12.0605ZM56.0547 9.66797C31.2988 9.66797 11.1328-10.498 11.1328-35.2539C11.1328-60.0586 31.2988-80.1758 56.0547-80.1758C80.8594-80.1758 100.977-60.0586 100.977-35.2539C100.977-10.498 80.8594 9.66797 56.0547 9.66797ZM42.9688-16.9434L47.998-16.9434C49.9023-16.9434 50.7812-18.0176 50.7812-19.5801L50.7812-50.7812C50.7812-52.3438 49.9023-53.3691 47.998-53.3691L42.9688-53.3691C41.1133-53.3691 40.1855-52.3438 40.1855-50.7812L40.1855-19.5801C40.1855-18.0176 41.1133-16.9434 42.9688-16.9434ZM64.0625-16.9434L69.0918-16.9434C70.9473-16.9434 71.875-18.0176 71.875-19.5801L71.875-50.7812C71.875-52.3438 70.9473-53.3691 69.0918-53.3691L64.0625-53.3691C62.207-53.3691 61.377-52.3438 61.377-50.7812L61.377-19.5801C61.377-18.0176 62.207-16.9434 64.0625-16.9434Z"/>
  </g>
  <g id="Black-S" transform="matrix(1 0 0 1 2884.57 696)">
   <path d="M48.8281 6.78711C71.9727 6.78711 90.8203-12.0605 90.8203-35.2051C90.8203-58.3496 71.9727-77.1973 48.8281-77.1973C25.6836-77.1973 6.83594-58.3496 6.83594-35.2051C6.83594-12.0605 25.6836 6.78711 48.8281 6.78711ZM48.8281-7.37305C33.4473-7.37305 20.9961-19.8242 20.9961-35.2051C20.9961-50.5859 33.4473-63.0371 48.8281-63.0371C64.209-63.0371 76.6602-50.5859 76.6602-35.2051C76.6602-19.8242 64.209-7.37305 48.8281-7.37305ZM37.4023-19.5312L42.4316-19.5312C44.6777-19.5312 45.9961-20.8984 45.9961-23.0469L45.9961-47.3145C45.9961-49.4629 44.6777-50.8301 42.4316-50.8301L37.4023-50.8301C35.1562-50.8301 33.8379-49.4629 33.8379-47.3145L33.8379-23.0469C33.8379-20.8984 35.1562-19.5312 37.4023-19.5312ZM55.2246-19.5312L60.2539-19.5312C62.5-19.5312 63.8184-20.8984 63.8184-23.0469L63.8184-47.3145C63.8184-49.4629 62.5-50.8301 60.2539-50.8301L55.2246-50.8301C52.9785-50.8301 51.6602-49.4629 51.6602-47.3145L51.6602-23.0469C51.6602-20.8984 52.9785-19.5312 55.2246-19.5312Z"/>
  </g>
  <g id="Heavy-S" transform="matrix(1 0 0 1 2588.47 696)">
   <path d="M48.2422 6.15234C70.9961 6.15234 89.5996-12.4512 89.5996-35.2051C89.5996-57.959 70.9961-76.6113 48.1934-76.6113C25.4395-76.6113 6.83594-57.959 6.83594-35.2051C6.83594-12.4512 25.4395 6.15234 48.2422 6.15234ZM48.2422-6.39648C32.2754-6.39648 19.4336-19.2871 19.4336-35.2051C19.4336-51.1719 32.2754-64.0137 48.1934-64.0137C64.1602-64.0137 77.002-51.1719 77.0508-35.2051C77.0508-19.2871 64.1602-6.39648 48.2422-6.39648ZM36.9141-19.6777L41.6504-19.6777C43.7988-19.6777 45.0195-20.9961 45.0195-22.998L45.0195-47.4121C45.0195-49.4141 43.7988-50.7324 41.6504-50.7324L36.9141-50.7324C34.7168-50.7324 33.4961-49.4141 33.4961-47.4121L33.4961-22.998C33.4961-20.9961 34.7168-19.6777 36.9141-19.6777ZM54.834-19.6777L59.5215-19.6777C61.7188-19.6777 62.9395-20.9961 62.9395-22.998L62.9395-47.4121C62.9395-49.4141 61.7188-50.7324 59.5215-50.7324L54.834-50.7324C52.6367-50.7324 51.416-49.4141 51.416-47.4121L51.416-22.998C51.416-20.9961 52.6367-19.6777 54.834-19.6777Z"/>
  </g>
  <g id="Bold-S" transform="matrix(1 0 0 1 2292.44 696)">
   <path d="M47.5586 5.46875C69.873 5.46875 88.2324-12.8906 88.2324-35.2539C88.2324-57.5684 69.873-75.9277 47.5098-75.9277C25.1953-75.9277 6.83594-57.5684 6.83594-35.2539C6.83594-12.8906 25.1953 5.46875 47.5586 5.46875ZM47.5586-5.32227C30.957-5.32227 17.6758-18.6523 17.6758-35.2539C17.6758-51.8066 30.957-65.1367 47.5098-65.1367C64.1113-65.1367 77.4414-51.8066 77.4414-35.2539C77.4414-18.6523 64.1113-5.32227 47.5586-5.32227ZM36.377-19.873L40.7227-19.873C42.8223-19.873 43.9453-21.0938 43.9453-22.9492L43.9453-47.5098C43.9453-49.3652 42.8223-50.5859 40.7227-50.5859L36.377-50.5859C34.2285-50.5859 33.1055-49.3652 33.1055-47.5098L33.1055-22.9492C33.1055-21.0938 34.2285-19.873 36.377-19.873ZM54.3457-19.873L58.7402-19.873C60.8398-19.873 61.9141-21.0938 61.9141-22.9492L61.9141-47.5098C61.9141-49.3652 60.8398-50.5859 58.7402-50.5859L54.3457-50.5859C52.2461-50.5859 51.123-49.3652 51.123-47.5098L51.123-22.9492C51.123-21.0938 52.2461-19.873 54.3457-19.873Z"/>
  </g>
  <g id="Semibold-S" transform="matrix(1 0 0 1 1996.2 696)">
   <path d="M47.0703 4.98047C69.0918 4.98047 87.3047-13.1836 87.3047-35.2539C87.3047-57.2754 69.0918-75.4883 47.0215-75.4883C25-75.4883 6.83594-57.2754 6.83594-35.2539C6.83594-13.1836 25.0488 4.98047 47.0703 4.98047ZM47.0703-4.58984C30.0781-4.58984 16.4551-18.2129 16.4551-35.2539C16.4551-52.2461 30.0293-65.8691 47.0215-65.8691C64.0625-65.8691 77.6855-52.2461 77.7344-35.2539C77.7344-18.2129 64.0625-4.58984 47.0703-4.58984ZM35.9863-19.9707L40.1367-19.9707C42.1875-19.9707 43.2129-21.1426 43.2129-22.9004L43.2129-47.6074C43.2129-49.3164 42.1875-50.4883 40.1367-50.4883L35.9863-50.4883C33.9355-50.4883 32.8613-49.3164 32.8613-47.6074L32.8613-22.9004C32.8613-21.1426 33.9355-19.9707 35.9863-19.9707ZM54.0527-19.9707L58.1543-19.9707C60.2051-19.9707 61.2305-21.1426 61.2305-22.9004L61.2305-47.6074C61.2305-49.3164 60.2051-50.4883 58.1543-50.4883L54.0527-50.4883C51.9531-50.4883 50.8789-49.3164 50.8789-47.6074L50.8789-22.9004C50.8789-21.1426 51.9531-19.9707 54.0527-19.9707Z"/>
  </g>
  <g id="Medium-S" transform="matrix(1 0 0 1 1699.83 696)">
   <path d="M46.7285 4.63867C68.5547 4.63867 86.6211-13.4277 86.6211-35.2539C86.6211-57.0801 68.5059-75.1465 46.6797-75.1465C24.8535-75.1465 6.83594-57.0801 6.83594-35.2539C6.83594-13.4277 24.9023 4.63867 46.7285 4.63867ZM46.7285-4.00391C29.3945-4.00391 15.5273-17.9199 15.5273-35.2539C15.5273-52.5879 29.3457-66.4551 46.6797-66.4551C64.0137-66.4551 77.8809-52.5879 77.9297-35.2539C77.9785-17.9199 64.0625-4.00391 46.7285-4.00391ZM35.6934-20.0684L39.6484-20.0684C41.6504-20.0684 42.6758-21.1914 42.6758-22.8516L42.6758-47.6562C42.6758-49.3164 41.6504-50.4395 39.6484-50.4395L35.6934-50.4395C33.6426-50.4395 32.666-49.3164 32.666-47.6562L32.666-22.8516C32.666-21.1914 33.6426-20.0684 35.6934-20.0684ZM53.8086-20.0684L57.7637-20.0684C59.7168-20.0684 60.7422-21.1914 60.7422-22.8516L60.7422-47.6562C60.7422-49.3164 59.7168-50.4395 57.7637-50.4395L53.8086-50.4395C51.7578-50.4395 50.7324-49.3164 50.7324-47.6562L50.7324-22.8516C50.7324-21.1914 51.7578-20.0684 53.8086-20.0684Z"/>
  </g>
  <g id="Regular-S" transform="matrix(1 0 0 1 1403.58 696)">
   <path d="M46.2402 4.15039C67.7734 4.15039 85.6934-13.7207 85.6934-35.2539C85.6934-56.7871 67.7246-74.6582 46.1914-74.6582C24.707-74.6582 6.83594-56.7871 6.83594-35.2539C6.83594-13.7207 24.7559 4.15039 46.2402 4.15039ZM46.2402-3.27148C28.5156-3.27148 14.3555-17.4805 14.3555-35.2539C14.3555-53.0273 28.4668-67.2363 46.1914-67.2363C63.9648-67.2363 78.1738-53.0273 78.2227-35.2539C78.2715-17.4805 64.0137-3.27148 46.2402-3.27148ZM35.3027-20.2148L39.0137-20.2148C41.0156-20.2148 41.9434-21.2891 41.9434-22.8027L41.9434-47.7539C41.9434-49.2676 41.0156-50.3418 39.0137-50.3418L35.3027-50.3418C33.3496-50.3418 32.4219-49.2676 32.4219-47.7539L32.4219-22.8027C32.4219-21.2891 33.3496-20.2148 35.3027-20.2148ZM53.4668-20.2148L57.2266-20.2148C59.1309-20.2148 60.0586-21.2891 60.0586-22.8027L60.0586-47.7539C60.0586-49.2676 59.1309-50.3418 57.2266-50.3418L53.4668-50.3418C51.5137-50.3418 50.5371-49.2676 50.5371-47.7539L50.5371-22.8027C50.5371-21.2891 51.5137-20.2148 53.4668-20.2148Z"/>
  </g>
  <g id="Light-S" transform="matrix(1 0 0 1 1107.6 696)">
   <path d="M45.5078 3.41797C66.6992 3.41797 84.2285-14.0625 84.2285-35.2539C84.2285-56.4453 66.6504-73.9258 45.5078-73.9258C24.3164-73.9258 6.83594-56.4453 6.83594-35.2539C6.83594-14.0625 24.3652 3.41797 45.5078 3.41797ZM45.5078-2.29492C27.2461-2.29492 12.5977-16.9922 12.5977-35.2539C12.5977-53.5156 27.1973-68.2129 45.5078-68.2129C63.7695-68.2129 78.4668-53.5156 78.5156-35.2539C78.5156-16.9922 63.8184-2.29492 45.5078-2.29492ZM34.8145-20.4102L38.5742-20.4102C40.4297-20.4102 41.2598-21.4355 41.2598-22.8516L41.2598-47.6562C41.2598-49.0723 40.4297-50.0488 38.5742-50.0488L34.8145-50.0488C33.0078-50.0488 32.1289-49.0723 32.1289-47.6562L32.1289-22.8516C32.1289-21.4355 33.0078-20.4102 34.8145-20.4102ZM52.4414-20.4102L56.25-20.4102C58.0078-20.4102 58.8867-21.4355 58.8867-22.8516L58.8867-47.6562C58.8867-49.0723 58.0078-50.0488 56.25-50.0488L52.4414-50.0488C50.6348-50.0488 49.7559-49.0723 49.7559-47.6562L49.7559-22.8516C49.7559-21.4355 50.6348-20.4102 52.4414-20.4102Z"/>
  </g>
  <g id="Thin-S" transform="matrix(1 0 0 1 811.867 696)">
   <path d="M44.5801 2.49023C65.2832 2.49023 82.2754-14.5508 82.2754-35.2539C82.2754-55.957 65.2344-72.998 44.5312-72.998C23.8281-72.998 6.83594-55.957 6.83594-35.2539C6.83594-14.5508 23.877 2.49023 44.5801 2.49023ZM44.5801-0.927734C25.5859-0.927734 10.2539-16.3086 10.2539-35.2539C10.2539-54.1992 25.5859-69.5801 44.5312-69.5801C63.5254-69.5801 78.8574-54.1992 78.8574-35.2539C78.8574-16.3086 63.5254-0.927734 44.5801-0.927734ZM34.1309-20.7031L37.9883-20.7031C39.5996-20.7031 40.3809-21.582 40.3809-22.9004L40.3809-47.5098C40.3809-48.8281 39.5996-49.707 37.9883-49.707L34.1309-49.707C32.5195-49.707 31.7383-48.8281 31.7383-47.5098L31.7383-22.9004C31.7383-21.582 32.5195-20.7031 34.1309-20.7031ZM51.123-20.7031L54.9805-20.7031C56.543-20.7031 57.3242-21.582 57.3242-22.9004L57.3242-47.5098C57.3242-48.8281 56.543-49.707 54.9805-49.707L51.123-49.707C49.5117-49.707 48.7305-48.8281 48.7305-47.5098L48.7305-22.9004C48.7305-21.582 49.5117-20.7031 51.123-20.7031Z"/>
  </g>
  <g id="Ultralight-S" transform="matrix(1 0 0 1 515.644 696)">
   <path d="M44.043 1.95312C64.502 1.95312 81.2988-14.7949 81.2988-35.2539C81.2988-55.7129 64.502-72.4609 44.043-72.4609C23.584-72.4609 6.83594-55.7129 6.83594-35.2539C6.83594-14.7949 23.584 1.95312 44.043 1.95312ZM44.043-0.244141C24.7559-0.244141 9.08203-15.9668 9.08203-35.2539C9.08203-54.541 24.7559-70.2637 44.043-70.2637C63.3789-70.2637 79.0527-54.541 79.0527-35.2539C79.0527-15.9668 63.3789-0.244141 44.043-0.244141ZM33.7891-20.8496L37.6465-20.8496C39.209-20.8496 39.8926-21.7285 39.8926-22.9492L39.8926-47.4121C39.8926-48.6816 39.209-49.5117 37.6465-49.5117L33.7891-49.5117C32.2754-49.5117 31.543-48.6816 31.543-47.4121L31.543-22.9492C31.543-21.7285 32.2754-20.8496 33.7891-20.8496ZM50.3906-20.8496L54.2969-20.8496C55.8105-20.8496 56.543-21.7285 56.543-22.9492L56.543-47.4121C56.543-48.6816 55.8105-49.5117 54.2969-49.5117L50.3906-49.5117C48.9258-49.5117 48.1934-48.6816 48.1934-47.4121L48.1934-22.9492C48.1934-21.7285 48.9258-20.8496 50.3906-20.8496Z"/>
  </g>
 </g>
</svg>
